<svg width="321" height="145" viewBox="0 0 321 145" fill="none" xmlns="http://www.w3.org/2000/svg">
<path d="M147.888 74.127H143.963V108.7H147.888V74.127Z" fill="black"/>
<path d="M160.525 91.3869C160.525 81.6994 168.608 73.4951 178.113 73.4951C187.673 73.4951 195.64 81.6383 195.64 91.3869C195.64 101.135 187.618 109.279 178.113 109.279C168.663 109.334 160.525 101.135 160.525 91.3869ZM191.714 91.3869C191.714 83.7047 185.512 77.1668 178.113 77.1668C170.714 77.1668 164.456 83.7047 164.456 91.3869C164.456 99.1301 170.714 105.662 178.113 105.662C185.512 105.662 191.714 99.1301 191.714 91.3869Z" fill="black"/>
<path d="M215.785 77.8542H204.234V74.127H231.211V77.8542H219.655V108.7H215.73L215.785 77.8542Z" fill="black"/>
<path d="M251.809 78.9439L238.775 108.7H234.508L248.793 76.0776C249.306 74.8723 250.502 74.1279 251.754 74.1279C253.06 74.1279 254.202 74.8723 254.714 76.0776L268.999 108.7H264.732L251.809 78.9439Z" fill="black"/>
<path d="M95.4151 44.5472C97.7952 44.5472 99.7247 42.6032 99.7247 40.2052C99.7247 37.8072 97.7952 35.8633 95.4151 35.8633C93.035 35.8633 91.1055 37.8072 91.1055 40.2052C91.1055 42.6032 93.035 44.5472 95.4151 44.5472Z" fill="black"/>
<path d="M100.259 105.882C102.639 105.882 104.568 103.938 104.568 101.54C104.568 99.1422 102.639 97.1982 100.259 97.1982C97.8787 97.1982 95.9492 99.1422 95.9492 101.54C95.9492 103.938 97.8787 105.882 100.259 105.882Z" fill="black"/>
<path d="M96.6455 55.4029C98.6427 55.4029 100.262 53.7717 100.262 51.7595C100.262 49.7474 98.6427 48.1162 96.6455 48.1162C94.6483 48.1162 93.0293 49.7474 93.0293 51.7595C93.0293 53.7717 94.6483 55.4029 96.6455 55.4029Z" fill="black"/>
<path d="M106.263 56.7993C108.26 56.7993 109.879 55.1682 109.879 53.156C109.879 51.1439 108.26 49.5127 106.263 49.5127C104.266 49.5127 102.646 51.1439 102.646 53.156C102.646 55.1682 104.266 56.7993 106.263 56.7993Z" fill="black"/>
<path d="M95.4153 64.6346C97.116 64.6346 98.4947 63.2456 98.4947 61.5321C98.4947 59.8187 97.116 58.4297 95.4153 58.4297C93.7146 58.4297 92.3359 59.8187 92.3359 61.5321C92.3359 63.2456 93.7146 64.6346 95.4153 64.6346Z" fill="black"/>
<path d="M105.034 65.9491C106.735 65.9491 108.114 64.56 108.114 62.8466C108.114 61.1332 106.735 59.7441 105.034 59.7441C103.334 59.7441 101.955 61.1332 101.955 62.8466C101.955 64.56 103.334 65.9491 105.034 65.9491Z" fill="black"/>
<path d="M112.73 68.9764C114.43 68.9764 115.809 67.5874 115.809 65.8739C115.809 64.1605 114.43 62.7715 112.73 62.7715C111.029 62.7715 109.65 64.1605 109.65 65.8739C109.65 67.5874 111.029 68.9764 112.73 68.9764Z" fill="black"/>
<path d="M102.186 73.3924C103.672 73.3924 104.877 72.1783 104.877 70.6806C104.877 69.1829 103.672 67.9688 102.186 67.9688C100.699 67.9688 99.4941 69.1829 99.4941 70.6806C99.4941 72.1783 100.699 73.3924 102.186 73.3924Z" fill="black"/>
<path d="M92.5647 72.0721C94.0512 72.0721 95.2563 70.858 95.2563 69.3603C95.2563 67.8626 94.0512 66.6484 92.5647 66.6484C91.0781 66.6484 89.873 67.8626 89.873 69.3603C89.873 70.858 91.0781 72.0721 92.5647 72.0721Z" fill="black"/>
<path d="M109.961 76.4159C111.448 76.4159 112.653 75.2017 112.653 73.704C112.653 72.2063 111.448 70.9922 109.961 70.9922C108.475 70.9922 107.27 72.2063 107.27 73.704C107.27 75.2017 108.475 76.4159 109.961 76.4159Z" fill="black"/>
<path d="M98.3387 79.0559C99.6153 79.0559 100.65 78.0133 100.65 76.7272C100.65 75.441 99.6153 74.3984 98.3387 74.3984C97.0622 74.3984 96.0273 75.441 96.0273 76.7272C96.0273 78.0133 97.0622 79.0559 98.3387 79.0559Z" fill="black"/>
<path d="M106.114 82.0022C107.391 82.0022 108.425 80.9596 108.425 79.6734C108.425 78.3873 107.391 77.3447 106.114 77.3447C104.838 77.3447 103.803 78.3873 103.803 79.6734C103.803 80.9596 104.838 82.0022 106.114 82.0022Z" fill="black"/>
<path d="M88.7938 77.6594C90.0703 77.6594 91.1052 76.6168 91.1052 75.3307C91.1052 74.0446 90.0703 73.002 88.7938 73.002C87.5173 73.002 86.4824 74.0446 86.4824 75.3307C86.4824 76.6168 87.5173 77.6594 88.7938 77.6594Z" fill="black"/>
<path d="M94.1014 82.8489C95.1638 82.8489 96.0251 81.9811 96.0251 80.9108C96.0251 79.8404 95.1638 78.9727 94.1014 78.9727C93.039 78.9727 92.1777 79.8404 92.1777 80.9108C92.1777 81.9811 93.039 82.8489 94.1014 82.8489Z" fill="black"/>
<path d="M97.4132 88.2063C98.348 88.2063 99.1058 87.4429 99.1058 86.5011C99.1058 85.5594 98.348 84.7959 97.4132 84.7959C96.4785 84.7959 95.7207 85.5594 95.7207 86.5011C95.7207 87.4429 96.4785 88.2063 97.4132 88.2063Z" fill="black"/>
<path d="M93.3341 89.2896C94.1 89.2896 94.7209 88.664 94.7209 87.8924C94.7209 87.1207 94.1 86.4951 93.3341 86.4951C92.5682 86.4951 91.9473 87.1207 91.9473 87.8924C91.9473 88.664 92.5682 89.2896 93.3341 89.2896Z" fill="black"/>
<path d="M89.7179 85.2532C90.6527 85.2532 91.4104 84.4898 91.4104 83.548C91.4104 82.6062 90.6527 81.8428 89.7179 81.8428C88.7832 81.8428 88.0254 82.6062 88.0254 83.548C88.0254 84.4898 88.7832 85.2532 89.7179 85.2532Z" fill="black"/>
<path d="M84.4842 81.5344C85.5466 81.5344 86.4079 80.6667 86.4079 79.5963C86.4079 78.5259 85.5466 77.6582 84.4842 77.6582C83.4218 77.6582 82.5605 78.5259 82.5605 79.5963C82.5605 80.6667 83.4218 81.5344 84.4842 81.5344Z" fill="black"/>
<path d="M84.41 66.9543C85.4724 66.9543 86.3337 66.0866 86.3337 65.0162C86.3337 63.9458 85.4724 63.0781 84.41 63.0781C83.3476 63.0781 82.4863 63.9458 82.4863 65.0162C82.4863 66.0866 83.3476 66.9543 84.41 66.9543Z" fill="black"/>
<path d="M85.2511 60.1351C86.1859 60.1351 86.9436 59.3716 86.9436 58.4298C86.9436 57.4881 86.1859 56.7246 85.2511 56.7246C84.3164 56.7246 83.5586 57.4881 83.5586 58.4298C83.5586 59.3716 84.3164 60.1351 85.2511 60.1351Z" fill="black"/>
<path d="M87.1017 54.5533C87.8676 54.5533 88.4885 53.9277 88.4885 53.156C88.4885 52.3844 87.8676 51.7588 87.1017 51.7588C86.3357 51.7588 85.7148 52.3844 85.7148 53.156C85.7148 53.9277 86.3357 54.5533 87.1017 54.5533Z" fill="black"/>
<path d="M83.8742 51.9163C84.8089 51.9163 85.5667 51.1529 85.5667 50.2111C85.5667 49.2693 84.8089 48.5059 83.8742 48.5059C82.9394 48.5059 82.1816 49.2693 82.1816 50.2111C82.1816 51.1529 82.9394 51.9163 83.8742 51.9163Z" fill="black"/>
<path d="M101.805 85.8039C102.867 85.8039 103.728 84.9362 103.728 83.8658C103.728 82.7955 102.867 81.9277 101.805 81.9277C100.742 81.9277 99.8809 82.7955 99.8809 83.8658C99.8809 84.9362 100.742 85.8039 101.805 85.8039Z" fill="black"/>
<path d="M79.4803 49.6633C80.5427 49.6633 81.404 48.7956 81.404 47.7252C81.404 46.6548 80.5427 45.7871 79.4803 45.7871C78.4179 45.7871 77.5566 46.6548 77.5566 47.7252C77.5566 48.7956 78.4179 49.6633 79.4803 49.6633Z" fill="black"/>
<path d="M80.7928 57.883C81.8552 57.883 82.7165 57.0153 82.7165 55.9449C82.7165 54.8746 81.8552 54.0068 80.7928 54.0068C79.7304 54.0068 78.8691 54.8746 78.8691 55.9449C78.8691 57.0153 79.7304 57.883 80.7928 57.883Z" fill="black"/>
<path d="M78.6395 65.7141C79.916 65.7141 80.9509 64.6715 80.9509 63.3854C80.9509 62.0992 79.916 61.0566 78.6395 61.0566C77.363 61.0566 76.3281 62.0992 76.3281 63.3854C76.3281 64.6715 77.363 65.7141 78.6395 65.7141Z" fill="black"/>
<path d="M71.6291 65.7157C73.1157 65.7157 74.3208 64.5015 74.3208 63.0038C74.3208 61.5061 73.1157 60.292 71.6291 60.292C70.1426 60.292 68.9375 61.5061 68.9375 63.0038C68.9375 64.5015 70.1426 65.7157 71.6291 65.7157Z" fill="black"/>
<path d="M63.4739 67.578C65.1746 67.578 66.5532 66.189 66.5532 64.4755C66.5532 62.7621 65.1746 61.373 63.4739 61.373C61.7732 61.373 60.3945 62.7621 60.3945 64.4755C60.3945 66.189 61.7732 67.578 63.4739 67.578Z" fill="black"/>
<path d="M54.5498 71.9966C56.547 71.9966 58.166 70.3654 58.166 68.3533C58.166 66.3411 56.547 64.71 54.5498 64.71C52.5526 64.71 50.9336 66.3411 50.9336 68.3533C50.9336 70.3654 52.5526 71.9966 54.5498 71.9966Z" fill="black"/>
<path d="M45.3096 79.4417C47.6897 79.4417 49.6192 77.4977 49.6192 75.0998C49.6192 72.7018 47.6897 70.7578 45.3096 70.7578C42.9295 70.7578 41 72.7018 41 75.0998C41 77.4977 42.9295 79.4417 45.3096 79.4417Z" fill="black"/>
<path d="M50.9306 62.9224C52.9278 62.9224 54.5468 61.2912 54.5468 59.2791C54.5468 57.2669 52.9278 55.6357 50.9306 55.6357C48.9335 55.6357 47.3145 57.2669 47.3145 59.2791C47.3145 61.2912 48.9335 62.9224 50.9306 62.9224Z" fill="black"/>
<path d="M59.8567 58.5028C61.5574 58.5028 62.9361 57.1138 62.9361 55.4003C62.9361 53.6869 61.5574 52.2979 59.8567 52.2979C58.156 52.2979 56.7773 53.6869 56.7773 55.4003C56.7773 57.1138 58.156 58.5028 59.8567 58.5028Z" fill="black"/>
<path d="M58.552 50.287C60.2527 50.287 61.6314 48.8979 61.6314 47.1845C61.6314 45.4711 60.2527 44.082 58.552 44.082C56.8513 44.082 55.4727 45.4711 55.4727 47.1845C55.4727 48.8979 56.8513 50.287 58.552 50.287Z" fill="black"/>
<path d="M66.7092 48.4237C68.1958 48.4237 69.4009 47.2095 69.4009 45.7118C69.4009 44.2141 68.1958 43 66.7092 43C65.2227 43 64.0176 44.2141 64.0176 45.7118C64.0176 47.2095 65.2227 48.4237 66.7092 48.4237Z" fill="black"/>
<path d="M73.7098 48.4299C74.9864 48.4299 76.0212 47.3873 76.0212 46.1012C76.0212 44.8151 74.9864 43.7725 73.7098 43.7725C72.4333 43.7725 71.3984 44.8151 71.3984 46.1012C71.3984 47.3873 72.4333 48.4299 73.7098 48.4299Z" fill="black"/>
<path d="M75.0145 56.6487C76.291 56.6487 77.3259 55.6061 77.3259 54.3199C77.3259 53.0338 76.291 51.9912 75.0145 51.9912C73.738 51.9912 72.7031 53.0338 72.7031 54.3199C72.7031 55.6061 73.738 56.6487 75.0145 56.6487Z" fill="black"/>
<path d="M68.0139 56.7176C69.5005 56.7176 70.7055 55.5035 70.7055 54.0058C70.7055 52.5081 69.5005 51.2939 68.0139 51.2939C66.5274 51.2939 65.3223 52.5081 65.3223 54.0058C65.3223 55.5035 66.5274 56.7176 68.0139 56.7176Z" fill="black"/>
<path d="M60.3927 77.3511C61.1586 77.3511 61.7795 76.7255 61.7795 75.9539C61.7795 75.1822 61.1586 74.5566 60.3927 74.5566C59.6268 74.5566 59.0059 75.1822 59.0059 75.9539C59.0059 76.7255 59.6268 77.3511 60.3927 77.3511Z" fill="black"/>
<path d="M65.9328 76.6458C66.8675 76.6458 67.6253 75.8823 67.6253 74.9406C67.6253 73.9988 66.8675 73.2354 65.9328 73.2354C64.998 73.2354 64.2402 73.9988 64.2402 74.9406C64.2402 75.8823 64.998 76.6458 65.9328 76.6458Z" fill="black"/>
<path d="M72.0174 74.3235C73.0798 74.3235 73.9411 73.4557 73.9411 72.3854C73.9411 71.315 73.0798 70.4473 72.0174 70.4473C70.955 70.4473 70.0938 71.315 70.0938 72.3854C70.0938 73.4557 70.955 74.3235 72.0174 74.3235Z" fill="black"/>
<path d="M73.4813 80.5276C74.7578 80.5276 75.7927 79.485 75.7927 78.1988C75.7927 76.9127 74.7578 75.8701 73.4813 75.8701C72.2048 75.8701 71.1699 76.9127 71.1699 78.1988C71.1699 79.485 72.2048 80.5276 73.4813 80.5276Z" fill="black"/>
<path d="M66.0897 82.0031C67.1521 82.0031 68.0133 81.1354 68.0133 80.0651C68.0133 78.9947 67.1521 78.127 66.0897 78.127C65.0273 78.127 64.166 78.9947 64.166 80.0651C64.166 81.1354 65.0273 82.0031 66.0897 82.0031Z" fill="black"/>
<path d="M59.5519 81.9192C60.4867 81.9192 61.2444 81.1558 61.2444 80.214C61.2444 79.2722 60.4867 78.5088 59.5519 78.5088C58.6171 78.5088 57.8594 79.2722 57.8594 80.214C57.8594 81.1558 58.6171 81.9192 59.5519 81.9192Z" fill="black"/>
<path d="M59.6248 87.2737C60.6872 87.2737 61.5485 86.4059 61.5485 85.3356C61.5485 84.2652 60.6872 83.3975 59.6248 83.3975C58.5624 83.3975 57.7012 84.2652 57.7012 85.3356C57.7012 86.4059 58.5624 87.2737 59.6248 87.2737Z" fill="black"/>
<path d="M67.4754 88.2805C68.752 88.2805 69.7868 87.2379 69.7868 85.9518C69.7868 84.6657 68.752 83.623 67.4754 83.623C66.1989 83.623 65.1641 84.6657 65.1641 85.9518C65.1641 87.2379 66.1989 88.2805 67.4754 88.2805Z" fill="black"/>
<path d="M76.633 87.2664C78.1196 87.2664 79.3247 86.0523 79.3247 84.5546C79.3247 83.0569 78.1196 81.8428 76.633 81.8428C75.1465 81.8428 73.9414 83.0569 73.9414 84.5546C73.9414 86.0523 75.1465 87.2664 76.633 87.2664Z" fill="black"/>
<path d="M82.0208 94.0213C83.7214 94.0213 85.1001 92.6323 85.1001 90.9189C85.1001 89.2054 83.7214 87.8164 82.0208 87.8164C80.3201 87.8164 78.9414 89.2054 78.9414 90.9189C78.9414 92.6323 80.3201 94.0213 82.0208 94.0213Z" fill="black"/>
<path d="M70.7034 94.9461C72.1899 94.9461 73.395 93.732 73.395 92.2343C73.395 90.7366 72.1899 89.5225 70.7034 89.5225C69.2168 89.5225 68.0117 90.7366 68.0117 92.2343C68.0117 93.732 69.2168 94.9461 70.7034 94.9461Z" fill="black"/>
<path d="M64.3225 100.219C65.8091 100.219 67.0141 99.0045 67.0141 97.5068C67.0141 96.0091 65.8091 94.7949 64.3225 94.7949C62.8359 94.7949 61.6309 96.0091 61.6309 97.5068C61.6309 99.0045 62.8359 100.219 64.3225 100.219Z" fill="black"/>
<path d="M69.6321 107.048C71.3328 107.048 72.7115 105.659 72.7115 103.945C72.7115 102.232 71.3328 100.843 69.6321 100.843C67.9314 100.843 66.5527 102.232 66.5527 103.945C66.5527 105.659 67.9314 107.048 69.6321 107.048Z" fill="black"/>
<path d="M83.792 108.286C85.7891 108.286 87.4082 106.654 87.4082 104.642C87.4082 102.63 85.7891 100.999 83.792 100.999C81.7948 100.999 80.1758 102.63 80.1758 104.642C80.1758 106.654 81.7948 108.286 83.792 108.286Z" fill="black"/>
<path d="M76.0208 101.773C77.7214 101.773 79.1001 100.384 79.1001 98.6708C79.1001 96.9574 77.7214 95.5684 76.0208 95.5684C74.3201 95.5684 72.9414 96.9574 72.9414 98.6708C72.9414 100.384 74.3201 101.773 76.0208 101.773Z" fill="black"/>
<path d="M89.7178 100.534C91.7149 100.534 93.334 98.9025 93.334 96.8904C93.334 94.8782 91.7149 93.2471 89.7178 93.2471C87.7206 93.2471 86.1016 94.8782 86.1016 96.8904C86.1016 98.9025 87.7206 100.534 89.7178 100.534Z" fill="black"/>
<path d="M61.0868 93.5539C62.3633 93.5539 63.3982 92.5113 63.3982 91.2252C63.3982 89.9391 62.3633 88.8965 61.0868 88.8965C59.8102 88.8965 58.7754 89.9391 58.7754 91.2252C58.7754 92.5113 59.8102 93.5539 61.0868 93.5539Z" fill="black"/>
<path d="M256.583 58.9084H253.338V35.7217H256.583V45.3618H256.803C257.843 43.2511 259.859 42.0224 262.348 42.0224C266.002 42.0224 268.082 44.6057 268.082 48.7642V58.9084H264.805V49.0792C264.805 46.2124 263.577 44.7632 261.151 44.7632C258.378 44.7632 256.583 46.874 256.583 50.1189V58.9084Z" fill="black"/>
<path d="M249.544 45.0466H246.111V56.262H249.544V58.9083H245.638C243.811 58.9083 242.897 58.0262 242.897 56.2305V45.0466H239.904V42.3373H242.897V36.9502H246.111V42.3373H249.544V45.0466Z" fill="black"/>
<path d="M236.985 39.6281H233.771V35.7217H236.985V39.6281ZM236.985 58.9084H233.771V42.3375H236.985V58.9084Z" fill="black"/>
<path d="M225.491 50.7169L227.571 42.3369H230.942L226.437 58.9079H222.247L220.325 50.7799L219.348 46.4009H219.159L218.246 50.7799L216.387 58.9079H212.228L207.629 42.3369H211.063L213.142 50.6539L214.213 55.663H214.465L217.427 42.3369H221.239L224.263 55.6315H224.483L225.491 50.7169Z" fill="black"/>
<path d="M199.595 45.0466H196.161V56.262H199.595V58.9083H195.689C193.862 58.9083 192.948 58.0262 192.948 56.2305V45.0466H189.955V42.3373H192.948V36.9502H196.161V42.3373H199.595V45.0466Z" fill="black"/>
<path d="M187.667 58.9084H184.453V35.7217H187.667V58.9084Z" fill="black"/>
<path d="M179.991 39.6281H176.777V35.7217H179.991V39.6281ZM179.991 58.9084H176.777V42.3375H179.991V58.9084Z" fill="black"/>
<path d="M169.052 42.3369H172.297V58.9079H169.493L169.052 55.852H168.8C167.824 57.9627 165.839 59.2229 163.224 59.2229C159.727 59.2229 157.711 56.8916 157.711 52.8591V42.3369H160.987V52.3866C160.987 55.1274 162.153 56.5136 164.484 56.5136C167.257 56.5136 169.052 54.3083 169.052 51.0319V42.3369Z" fill="black"/>
<path d="M147.723 58.9086H136.791V35.9424H147.88C152.007 35.9424 154.213 38.2106 154.213 41.7706C154.213 44.2594 153.047 46.1496 150.936 46.9372V47.1892C153.488 47.8193 154.811 49.867 154.811 52.7654C154.811 56.5143 152.133 58.9086 147.723 58.9086ZM140.162 38.7147V45.8345H147.471C149.487 45.8345 150.684 44.7634 150.684 42.9992V41.487C150.684 39.7543 149.487 38.7147 147.439 38.7147H140.162ZM140.162 48.5754V56.1362H147.282C149.676 56.1362 151.188 54.9706 151.188 53.1749V51.6312C151.188 49.615 149.865 48.5754 147.691 48.5754H140.162Z" fill="black"/>
</svg>
