<svg width="92" height="24" viewBox="0 0 92 24" fill="none" xmlns="http://www.w3.org/2000/svg">
<path d="M17.9521 2.87771C18.7373 2.87771 19.3739 2.23351 19.3739 1.43885C19.3739 0.644197 18.7373 0 17.9521 0C17.1669 0 16.5303 0.644197 16.5303 1.43885C16.5303 2.23351 17.1669 2.87771 17.9521 2.87771Z" fill="#171D26"/>
<path d="M50.7829 4.18701C46.5422 4.18701 42.936 7.86383 42.936 12.2053C42.936 16.5741 46.5668 20.2484 50.7829 20.2235C55.0236 20.2235 58.6027 16.5741 58.6027 12.2053C58.6027 7.83643 55.0482 4.18701 50.7829 4.18701ZM50.7829 5.83248C54.084 5.83248 56.8513 8.7625 56.8513 12.2053C56.8513 15.6754 54.084 18.603 50.7829 18.603C47.4818 18.603 44.6899 15.6754 44.6899 12.2053C44.6899 8.7625 47.4818 5.83248 50.7829 5.83248Z" fill="#171D26"/>
<path d="M35.5469 4.4707H37.2983V19.9645H35.5469V4.4707Z" fill="#171D26"/>
<path d="M67.5907 6.14107H62.4375V4.4707H74.4734V6.14107H69.3174V19.9645H67.566L67.5907 6.14107Z" fill="#171D26"/>
<path d="M77.8478 19.9645L83.6625 6.62899L89.4285 19.9645H91.3325L84.9592 5.34448C84.7305 4.80428 84.2212 4.4707 83.6385 4.4707C83.0798 4.4707 82.5458 4.80428 82.3172 5.34448L75.9438 19.9645H77.8478Z" fill="#171D26"/>
<path d="M20.9724 21.7641C20.9724 22.5587 20.3359 23.2029 19.5506 23.2029C18.7654 23.2029 18.1289 22.5587 18.1289 21.7641C18.1289 20.9694 18.7654 20.3252 19.5506 20.3252C20.3359 20.3252 20.9724 20.9694 20.9724 21.7641Z" fill="#171D26"/>
<path d="M18.3571 6.47426C19.0159 6.47426 19.5501 5.93372 19.5501 5.26692C19.5501 4.60012 19.0159 4.05957 18.3571 4.05957C17.6982 4.05957 17.1641 4.60012 17.1641 5.26692C17.1641 5.93372 17.6982 6.47426 18.3571 6.47426Z" fill="#171D26"/>
<path d="M22.7229 5.73078C22.7229 6.39758 22.1888 6.93813 21.5299 6.93813C20.871 6.93813 20.3369 6.39758 20.3369 5.73078C20.3369 5.06398 20.871 4.52344 21.5299 4.52344C22.1888 4.52344 22.7229 5.06398 22.7229 5.73078Z" fill="#171D26"/>
<path d="M17.952 9.53374C18.513 9.53374 18.9678 9.07347 18.9678 8.50567C18.9678 7.93781 18.513 7.47754 17.952 7.47754C17.3909 7.47754 16.936 7.93781 16.936 8.50567C16.936 9.07347 17.3909 9.53374 17.952 9.53374Z" fill="#171D26"/>
<path d="M22.1412 8.94122C22.1412 9.50902 21.6863 9.96929 21.1252 9.96929C20.5642 9.96929 20.1094 9.50902 20.1094 8.94122C20.1094 8.37342 20.5642 7.91309 21.1252 7.91309C21.6863 7.91309 22.1412 8.37342 22.1412 8.94122Z" fill="#171D26"/>
<path d="M23.6629 10.9732C24.224 10.9732 24.6788 10.5129 24.6788 9.94513C24.6788 9.37733 24.224 8.91699 23.6629 8.91699C23.1018 8.91699 22.647 9.37733 22.647 9.94513C22.647 10.5129 23.1018 10.9732 23.6629 10.9732Z" fill="#171D26"/>
<path d="M21.0729 11.5383C21.0729 12.0346 20.6753 12.437 20.1849 12.437C19.6945 12.437 19.2969 12.0346 19.2969 11.5383C19.2969 11.042 19.6945 10.6396 20.1849 10.6396C20.6753 10.6396 21.0729 11.042 21.0729 11.5383Z" fill="#171D26"/>
<path d="M17.0115 11.9984C17.502 11.9984 17.8995 11.5961 17.8995 11.0998C17.8995 10.6035 17.502 10.2012 17.0115 10.2012C16.5211 10.2012 16.1235 10.6035 16.1235 11.0998C16.1235 11.5961 16.5211 11.9984 17.0115 11.9984Z" fill="#171D26"/>
<path d="M23.6393 12.5383C23.6393 13.0346 23.2417 13.4369 22.7513 13.4369C22.2609 13.4369 21.8633 13.0346 21.8633 12.5383C21.8633 12.042 22.2609 11.6396 22.7513 11.6396C23.2417 11.6396 23.6393 12.042 23.6393 12.5383Z" fill="#171D26"/>
<path d="M18.9159 14.3139C19.337 14.3139 19.6784 13.9684 19.6784 13.5422C19.6784 13.116 19.337 12.7705 18.9159 12.7705C18.4947 12.7705 18.1533 13.116 18.1533 13.5422C18.1533 13.9684 18.4947 14.3139 18.9159 14.3139Z" fill="#171D26"/>
<path d="M22.2439 14.5178C22.2439 14.944 21.9025 15.2896 21.4813 15.2896C21.0602 15.2896 20.7188 14.944 20.7188 14.5178C20.7188 14.0916 21.0602 13.7461 21.4813 13.7461C21.9025 13.7461 22.2439 14.0916 22.2439 14.5178Z" fill="#171D26"/>
<path d="M15.7674 13.8511C16.1885 13.8511 16.53 13.5056 16.53 13.0794C16.53 12.6532 16.1885 12.3076 15.7674 12.3076C15.3463 12.3076 15.0049 12.6532 15.0049 13.0794C15.0049 13.5056 15.3463 13.8511 15.7674 13.8511Z" fill="#171D26"/>
<path d="M18.1535 14.9284C18.1535 15.2831 17.8694 15.5707 17.5189 15.5707C17.1684 15.5707 16.8843 15.2831 16.8843 14.9284C16.8843 14.5737 17.1684 14.2861 17.5189 14.2861C17.8694 14.2861 18.1535 14.5737 18.1535 14.9284Z" fill="#171D26"/>
<path d="M18.6102 17.346C18.9186 17.346 19.1686 17.093 19.1686 16.781C19.1686 16.4688 18.9186 16.2158 18.6102 16.2158C18.3018 16.2158 18.0518 16.4688 18.0518 16.781C18.0518 17.093 18.3018 17.346 18.6102 17.346Z" fill="#171D26"/>
<path d="M17.7237 17.2413C17.7237 17.4971 17.5188 17.7043 17.2661 17.7043C17.0135 17.7043 16.8086 17.4971 16.8086 17.2413C16.8086 16.9856 17.0135 16.7783 17.2661 16.7783C17.5188 16.7783 17.7237 16.9856 17.7237 17.2413Z" fill="#171D26"/>
<path d="M16.0726 16.3675C16.3809 16.3675 16.6309 16.1145 16.6309 15.8024C16.6309 15.4903 16.3809 15.2373 16.0726 15.2373C15.7642 15.2373 15.5142 15.4903 15.5142 15.8024C15.5142 16.1145 15.7642 16.3675 16.0726 16.3675Z" fill="#171D26"/>
<path d="M14.9802 14.4929C14.9802 14.8475 14.6961 15.1351 14.3456 15.1351C13.9951 15.1351 13.7109 14.8475 13.7109 14.4929C13.7109 14.1381 13.9951 13.8506 14.3456 13.8506C14.6961 13.8506 14.9802 14.1381 14.9802 14.4929Z" fill="#171D26"/>
<path d="M14.3207 10.3031C14.6712 10.3031 14.9553 10.0156 14.9553 9.66082C14.9553 9.30609 14.6712 9.01855 14.3207 9.01855C13.9702 9.01855 13.686 9.30609 13.686 9.66082C13.686 10.0156 13.9702 10.3031 14.3207 10.3031Z" fill="#171D26"/>
<path d="M15.1568 7.47822C15.1568 7.79029 14.9068 8.04329 14.5984 8.04329C14.29 8.04329 14.04 7.79029 14.04 7.47822C14.04 7.16609 14.29 6.91309 14.5984 6.91309C14.9068 6.91309 15.1568 7.16609 15.1568 7.47822Z" fill="#171D26"/>
<path d="M15.2084 6.19362C15.4612 6.19362 15.666 5.98632 15.666 5.7306C15.666 5.47488 15.4612 5.26758 15.2084 5.26758C14.9558 5.26758 14.751 5.47488 14.751 5.7306C14.751 5.98632 14.9558 6.19362 15.2084 6.19362Z" fill="#171D26"/>
<path d="M14.7027 4.75454C14.7027 5.06663 14.4527 5.31963 14.1443 5.31963C13.8359 5.31963 13.5859 5.06663 13.5859 4.75454C13.5859 4.44245 13.8359 4.18945 14.1443 4.18945C14.4527 4.18945 14.7027 4.44245 14.7027 4.75454Z" fill="#171D26"/>
<path d="M20.0604 16.5491C20.4109 16.5491 20.695 16.2616 20.695 15.9068C20.695 15.5522 20.4109 15.2646 20.0604 15.2646C19.7099 15.2646 19.4258 15.5522 19.4258 15.9068C19.4258 16.2616 19.7099 16.5491 20.0604 16.5491Z" fill="#171D26"/>
<path d="M13.3288 3.93034C13.3288 4.28505 13.0447 4.5726 12.6942 4.5726C12.3437 4.5726 12.0596 4.28505 12.0596 3.93034C12.0596 3.57563 12.3437 3.28809 12.6942 3.28809C13.0447 3.28809 13.3288 3.57563 13.3288 3.93034Z" fill="#171D26"/>
<path d="M13.1278 7.29623C13.4783 7.29623 13.7624 7.00869 13.7624 6.65398C13.7624 6.29926 13.4783 6.01172 13.1278 6.01172C12.7773 6.01172 12.4932 6.29926 12.4932 6.65398C12.4932 7.00869 12.7773 7.29623 13.1278 7.29623Z" fill="#171D26"/>
<path d="M13.1799 9.12134C13.1799 9.54754 12.8385 9.89301 12.4173 9.89301C11.9962 9.89301 11.6548 9.54754 11.6548 9.12134C11.6548 8.69514 11.9962 8.34961 12.4173 8.34961C12.8385 8.34961 13.1799 8.69514 13.1799 9.12134Z" fill="#171D26"/>
<path d="M10.1053 9.89297C10.5957 9.89297 10.9933 9.49064 10.9933 8.9943C10.9933 8.49804 10.5957 8.0957 10.1053 8.0957C9.61482 8.0957 9.21729 8.49804 9.21729 8.9943C9.21729 9.49064 9.61482 9.89297 10.1053 9.89297Z" fill="#171D26"/>
<path d="M8.43026 9.48217C8.43026 10.05 7.9754 10.5103 7.41433 10.5103C6.85326 10.5103 6.39844 10.05 6.39844 9.48217C6.39844 8.91437 6.85326 8.4541 7.41433 8.4541C7.9754 8.4541 8.43026 8.91437 8.43026 9.48217Z" fill="#171D26"/>
<path d="M4.4689 11.9742C5.12778 11.9742 5.66191 11.4337 5.66191 10.7669C5.66191 10.1001 5.12778 9.55957 4.4689 9.55957C3.81001 9.55957 3.27588 10.1001 3.27588 10.7669C3.27588 11.4337 3.81001 11.9742 4.4689 11.9742Z" fill="#171D26"/>
<path d="M2.84356 13.0023C2.84356 13.7969 2.20701 14.4411 1.42178 14.4411C0.636553 14.4411 0 13.7969 0 13.0023C0 12.2077 0.636553 11.5635 1.42178 11.5635C2.20701 11.5635 2.84356 12.2077 2.84356 13.0023Z" fill="#171D26"/>
<path d="M3.27651 8.96648C3.9354 8.96648 4.46953 8.42588 4.46953 7.75908C4.46953 7.09228 3.9354 6.55176 3.27651 6.55176C2.61763 6.55176 2.0835 7.09228 2.0835 7.75908C2.0835 8.42588 2.61763 8.96648 3.27651 8.96648Z" fill="#171D26"/>
<path d="M7.23594 6.4744C7.23594 7.04221 6.78107 7.50248 6.22001 7.50248C5.65894 7.50248 5.2041 7.04221 5.2041 6.4744C5.2041 5.90659 5.65894 5.44629 6.22001 5.44629C6.78107 5.44629 7.23594 5.90659 7.23594 6.4744Z" fill="#171D26"/>
<path d="M5.79032 4.77985C6.35139 4.77985 6.80621 4.31955 6.80621 3.75174C6.80621 3.18393 6.35139 2.72363 5.79032 2.72363C5.22925 2.72363 4.77441 3.18393 4.77441 3.75174C4.77441 4.31955 5.22925 4.77985 5.79032 4.77985Z" fill="#171D26"/>
<path d="M9.36975 3.26292C9.36975 3.75923 8.97222 4.16158 8.48175 4.16158C7.99135 4.16158 7.59375 3.75923 7.59375 3.26292C7.59375 2.7666 7.99135 2.36426 8.48175 2.36426C8.97222 2.36426 9.36975 2.7666 9.36975 3.26292Z" fill="#171D26"/>
<path d="M10.7909 4.1645C11.212 4.1645 11.5534 3.819 11.5534 3.3928C11.5534 2.9666 11.212 2.62109 10.7909 2.62109C10.3697 2.62109 10.0283 2.9666 10.0283 3.3928C10.0283 3.819 10.3697 4.1645 10.7909 4.1645Z" fill="#171D26"/>
<path d="M11.9845 6.11643C11.9845 6.54263 11.6431 6.88813 11.222 6.88813C10.8009 6.88813 10.4595 6.54263 10.4595 6.11643C10.4595 5.69023 10.8009 5.34473 11.222 5.34473C11.6431 5.34473 11.9845 5.69023 11.9845 6.11643Z" fill="#171D26"/>
<path d="M8.91144 6.9106C9.40184 6.9106 9.79937 6.50826 9.79937 6.01194C9.79937 5.51563 9.40184 5.11328 8.91144 5.11328C8.42097 5.11328 8.02344 5.51563 8.02344 6.01194C8.02344 6.50826 8.42097 6.9106 8.91144 6.9106Z" fill="#171D26"/>
<path d="M6.85497 13.2862C6.85497 13.542 6.65015 13.7492 6.39747 13.7492C6.14478 13.7492 5.93994 13.542 5.93994 13.2862C5.93994 13.0305 6.14478 12.8232 6.39747 12.8232C6.65015 12.8232 6.85497 13.0305 6.85497 13.2862Z" fill="#171D26"/>
<path d="M8.2249 13.515C8.53324 13.515 8.78324 13.262 8.78324 12.9499C8.78324 12.6378 8.53324 12.3848 8.2249 12.3848C7.9165 12.3848 7.6665 12.6378 7.6665 12.9499C7.6665 13.262 7.9165 13.515 8.2249 13.515Z" fill="#171D26"/>
<path d="M10.8669 12.1032C10.8669 12.4579 10.5828 12.7455 10.2323 12.7455C9.88179 12.7455 9.59766 12.4579 9.59766 12.1032C9.59766 11.7485 9.88179 11.4609 10.2323 11.4609C10.5828 11.4609 10.8669 11.7485 10.8669 12.1032Z" fill="#171D26"/>
<path d="M10.7143 14.8022C11.1354 14.8022 11.4768 14.4567 11.4768 14.0305C11.4768 13.6043 11.1354 13.2588 10.7143 13.2588C10.2931 13.2588 9.95166 13.6043 9.95166 14.0305C9.95166 14.4567 10.2931 14.8022 10.7143 14.8022Z" fill="#171D26"/>
<path d="M8.91233 14.6472C8.91233 15.0019 8.6282 15.2894 8.27773 15.2894C7.9272 15.2894 7.64307 15.0019 7.64307 14.6472C7.64307 14.2924 7.9272 14.0049 8.27773 14.0049C8.6282 14.0049 8.91233 14.2924 8.91233 14.6472Z" fill="#171D26"/>
<path d="M6.11942 15.262C6.4278 15.262 6.67777 15.009 6.67777 14.697C6.67777 14.3848 6.4278 14.1318 6.11942 14.1318C5.81103 14.1318 5.56104 14.3848 5.56104 14.697C5.56104 15.009 5.81103 15.262 6.11942 15.262Z" fill="#171D26"/>
<path d="M6.77951 16.3952C6.77951 16.7499 6.49539 17.0375 6.14489 17.0375C5.79439 17.0375 5.51025 16.7499 5.51025 16.3952C5.51025 16.0405 5.79439 15.7529 6.14489 15.7529C6.49539 15.7529 6.77951 16.0405 6.77951 16.3952Z" fill="#171D26"/>
<path d="M8.73519 17.3705C9.15632 17.3705 9.49772 17.0251 9.49772 16.5989C9.49772 16.1727 9.15632 15.8271 8.73519 15.8271C8.31406 15.8271 7.97266 16.1727 7.97266 16.5989C7.97266 17.0251 8.31406 17.3705 8.73519 17.3705Z" fill="#171D26"/>
<path d="M12.6432 16.136C12.6432 16.6323 12.2456 17.0346 11.7552 17.0346C11.2647 17.0346 10.8672 16.6323 10.8672 16.136C10.8672 15.6397 11.2647 15.2373 11.7552 15.2373C12.2456 15.2373 12.6432 15.6397 12.6432 16.136Z" fill="#171D26"/>
<path d="M13.534 19.273C14.0951 19.273 14.5499 18.8127 14.5499 18.2449C14.5499 17.6771 14.0951 17.2168 13.534 17.2168C12.9729 17.2168 12.5181 17.6771 12.5181 18.2449C12.5181 18.8127 12.9729 19.273 13.534 19.273Z" fill="#171D26"/>
<path d="M10.6871 18.6799C10.6871 19.1762 10.2895 19.5786 9.79913 19.5786C9.30867 19.5786 8.91113 19.1762 8.91113 18.6799C8.91113 18.1836 9.30867 17.7812 9.79913 17.7812C10.2895 17.7812 10.6871 18.1836 10.6871 18.6799Z" fill="#171D26"/>
<path d="M7.69366 21.3266C8.18406 21.3266 8.58166 20.9243 8.58166 20.428C8.58166 19.9317 8.18406 19.5293 7.69366 19.5293C7.2032 19.5293 6.80566 19.9317 6.80566 20.428C6.80566 20.9243 7.2032 21.3266 7.69366 21.3266Z" fill="#171D26"/>
<path d="M10.4616 22.5613C10.4616 23.1291 10.0067 23.5894 9.44562 23.5894C8.88455 23.5894 8.42969 23.1291 8.42969 22.5613C8.42969 21.9935 8.88455 21.5332 9.44562 21.5332C10.0067 21.5332 10.4616 21.9935 10.4616 22.5613Z" fill="#171D26"/>
<path d="M14.1173 23.9997C14.7763 23.9997 15.3104 23.4591 15.3104 22.7923C15.3104 22.1255 14.7763 21.585 14.1173 21.585C13.4585 21.585 12.9243 22.1255 12.9243 22.7923C12.9243 23.4591 13.4585 23.9997 14.1173 23.9997Z" fill="#171D26"/>
<path d="M12.5695 20.8143C12.5695 21.3821 12.1146 21.8423 11.5535 21.8423C10.9925 21.8423 10.5376 21.3821 10.5376 20.8143C10.5376 20.2465 10.9925 19.7861 11.5535 19.7861C12.1146 19.7861 12.5695 20.2465 12.5695 20.8143Z" fill="#171D26"/>
<path d="M16.0719 21.4313C16.7308 21.4313 17.2649 20.8907 17.2649 20.2239C17.2649 19.5571 16.7308 19.0166 16.0719 19.0166C15.413 19.0166 14.8789 19.5571 14.8789 20.2239C14.8789 20.8907 15.413 21.4313 16.0719 21.4313Z" fill="#171D26"/>
<path d="M7.38934 18.3469C7.38934 18.7731 7.04794 19.1186 6.6268 19.1186C6.20566 19.1186 5.86426 18.7731 5.86426 18.3469C5.86426 17.9207 6.20566 17.5752 6.6268 17.5752C7.04794 17.5752 7.38934 17.9207 7.38934 18.3469Z" fill="#171D26"/>
</svg>
