<svg width="105" height="22" viewBox="0 0 105 22" fill="none" xmlns="http://www.w3.org/2000/svg">
<g clip-path="url(#clip0_140_18)">
<path d="M12.4664 21.8405C11.5219 21.1605 11.9553 19.7266 13.1043 19.7266C13.783 19.7266 14.2696 20.2141 14.2696 20.8901C14.2696 21.1564 14.2614 21.1891 14.0529 21.5701C14.0161 21.6357 13.8811 21.7586 13.7544 21.8446C13.5254 22.0003 13.5254 22.0003 13.1083 22.0003H12.6872L12.4664 21.8405Z" fill="black"/>
<path d="M8.36165 21.5907C8.13267 21.4637 7.96094 21.2917 7.85054 21.0704C7.7197 20.8041 7.74832 20.3945 7.91596 20.1486C8.23489 19.6857 8.83186 19.5341 9.24483 19.8086C9.33069 19.866 9.42065 19.911 9.44518 19.911C9.46971 19.911 9.51878 19.9766 9.55558 20.0544C9.59238 20.1323 9.63736 20.1978 9.65371 20.1978C9.67007 20.1978 9.70687 20.292 9.7314 20.4067C9.83771 20.8492 9.68642 21.2589 9.31843 21.5088C9.13443 21.6317 9.06901 21.6522 8.8155 21.6645C8.57835 21.6768 8.49658 21.6604 8.36165 21.5907Z" fill="black"/>
<path d="M17.737 21.2505C17.1605 21.0333 16.8497 20.6237 16.8129 20.0255C16.8006 19.7879 16.8129 19.6609 16.8702 19.5052C16.911 19.3905 16.9601 19.2963 16.9765 19.2963C16.9928 19.2963 17.0092 19.2676 17.0092 19.2307C17.0092 19.157 17.3404 18.8292 17.4998 18.7473C17.8883 18.5466 18.5916 18.5834 18.9023 18.8211C18.9963 18.8907 19.1476 19.0423 19.2376 19.157C19.3848 19.3332 19.4175 19.411 19.4584 19.6732C19.5688 20.3492 19.303 20.9063 18.7469 21.1644C18.4566 21.3037 17.9864 21.3406 17.737 21.2505Z" fill="black"/>
<path d="M10.271 19.9676C10.0134 19.8406 9.88256 19.6808 9.7926 19.3654C9.70265 19.0581 9.77625 18.6239 9.94389 18.4436C10.3977 17.952 11.0192 17.9397 11.4731 18.4067C11.6121 18.5542 11.6489 18.6239 11.6857 18.841C11.7757 19.3572 11.6039 19.7464 11.1951 19.9553C10.8843 20.111 10.5817 20.1151 10.271 19.9676Z" fill="black"/>
<path d="M14.5021 19.5997C14.265 19.5137 14.1014 19.3662 13.9419 19.1081C13.8111 18.8868 13.7988 18.8459 13.7988 18.5386C13.7988 18.2682 13.8193 18.1699 13.897 18.0183C14.175 17.4734 14.8088 17.2317 15.3812 17.457C15.6306 17.5554 15.8228 17.7233 15.9782 17.9855C16.0722 18.1453 16.0845 18.215 16.0886 18.5181C16.0886 18.85 16.0804 18.8827 15.9455 19.1081C15.7819 19.3744 15.6224 19.5137 15.3689 19.6038C15.1522 19.6775 14.7147 19.6775 14.5021 19.5997Z" fill="black"/>
<path d="M6.7995 19.5211C6.45195 19.3695 6.22707 18.9721 6.28022 18.6116C6.34564 18.1691 6.77497 17.8291 7.20838 17.8741C7.90348 17.9438 8.25103 18.759 7.81353 19.2834C7.6418 19.4883 7.44145 19.5825 7.17976 19.5825C7.04074 19.5784 6.86901 19.5538 6.7995 19.5211Z" fill="black"/>
<path d="M8.79051 17.9317C8.52883 17.8047 8.4266 17.7105 8.34483 17.5262C8.04634 16.8379 8.5738 16.1455 9.29752 16.2807C9.51832 16.3217 9.82498 16.588 9.88631 16.7887C9.95991 17.0345 9.94764 17.3377 9.85769 17.5466C9.74729 17.8006 9.43245 17.985 9.11353 17.985C8.99086 17.9809 8.84775 17.9604 8.79051 17.9317Z" fill="black"/>
<path d="M12.107 17.6126C11.6777 17.3996 11.5019 16.9899 11.6123 16.4696C11.6736 16.1787 11.8453 15.9657 12.1397 15.8141C12.4259 15.6707 12.9657 15.724 13.1251 15.9124C13.1537 15.9493 13.1987 15.978 13.2232 15.978C13.3541 15.9821 13.534 16.4163 13.534 16.7318C13.534 17.0595 13.4318 17.3094 13.2314 17.4733C12.8716 17.7683 12.5077 17.8134 12.107 17.6126Z" fill="black"/>
<path d="M5.87079 17.4932C5.63772 17.4235 5.39648 17.0507 5.39648 16.764C5.39648 16.596 5.56004 16.3174 5.72359 16.2027C6.03434 15.9856 6.39824 16.0224 6.70082 16.301L6.86846 16.4567V16.7844C6.86846 17.0999 6.86437 17.1163 6.72535 17.2802C6.525 17.5137 6.20607 17.5915 5.87079 17.4932Z" fill="black"/>
<path d="M36.6562 17.0835C36.4763 17.063 36.1656 17.0098 35.9611 16.9606C35.7608 16.9156 35.5523 16.8664 35.4991 16.8541C35.3151 16.8172 34.5137 16.4321 34.3829 16.3215C34.3501 16.2887 34.3011 16.2642 34.2806 16.2642C34.2357 16.2642 33.9086 16.002 33.651 15.7602C33.3852 15.5062 32.8741 14.9204 32.8741 14.863C32.8741 14.8467 32.8128 14.736 32.7392 14.6172C32.5306 14.2854 32.2812 13.7077 32.1422 13.2325C31.8069 12.0895 31.8028 10.1927 32.1381 9.13157C32.2035 8.91854 32.2608 8.72598 32.2608 8.7014C32.2608 8.62766 32.6492 7.82058 32.7678 7.64852C32.825 7.56248 32.8741 7.48055 32.8741 7.46006C32.8741 7.44368 32.9395 7.35764 33.0172 7.26751C33.0949 7.18148 33.1603 7.09545 33.1603 7.07906C33.1603 7.04628 33.8472 6.34982 33.884 6.34982C33.8963 6.34982 33.9781 6.28427 34.0639 6.20643C34.1498 6.12859 34.297 6.02617 34.3951 5.97701C34.4933 5.92785 34.5996 5.86639 34.6323 5.83772C34.665 5.80494 34.7672 5.75578 34.8572 5.72301C34.9471 5.69023 35.1311 5.61649 35.266 5.55913C35.5523 5.43623 35.9489 5.3461 36.554 5.25597C37.4699 5.12487 38.6557 5.29284 39.5021 5.67384C39.7678 5.79265 40.0172 5.91965 40.054 5.95653C40.0868 5.9934 40.1358 6.02207 40.1563 6.02207C40.2544 6.02207 40.9986 6.67757 41.2562 6.99302C41.4156 7.18148 41.5424 7.35355 41.5424 7.36993C41.5424 7.38632 41.5792 7.43548 41.6201 7.48464C41.7264 7.59526 42.0576 8.23846 42.1598 8.52114C42.54 9.58222 42.6995 10.7007 42.6136 11.7003C42.5523 12.3804 42.3397 13.4414 42.2375 13.5807C42.217 13.6053 42.1802 13.7036 42.1516 13.8061C42.0862 14.0355 41.7713 14.6336 41.616 14.8344C41.5546 14.9163 41.5015 14.9982 41.5015 15.0146C41.5015 15.0556 41.1171 15.5103 40.9372 15.6824C40.7451 15.8668 40.2503 16.2642 40.2135 16.2642C40.1931 16.2642 40.1195 16.3133 40.0418 16.3707C39.9682 16.428 39.7229 16.555 39.498 16.6534C38.717 17.0016 37.5476 17.1778 36.6562 17.0835ZM38.2631 16.3092C38.4962 16.2601 38.807 16.1658 38.9542 16.1003C39.0973 16.0306 39.2363 15.9774 39.2567 15.9774C39.3998 15.9774 40.6428 14.9819 40.6428 14.8671C40.6428 14.8508 40.6878 14.7852 40.7451 14.7197C40.8759 14.5722 41.109 14.2075 41.2112 13.9904C41.4361 13.5111 41.5015 13.3513 41.5383 13.2079C41.5587 13.1219 41.6282 12.872 41.6937 12.6589C41.8081 12.2738 41.8081 12.2656 41.8081 11.1431C41.8041 10.0288 41.8041 10.0124 41.6896 9.64777C41.6282 9.44703 41.5628 9.21351 41.5465 9.13567C41.477 8.80792 41.1253 8.13604 40.7369 7.58297C40.422 7.14051 39.5797 6.45224 39.1463 6.29656C39.0605 6.26379 38.8683 6.19004 38.7211 6.13269C38.3981 6.00978 37.703 5.89917 37.245 5.89917C36.7503 5.89917 35.9489 6.04256 35.6013 6.19414C35.2333 6.34982 35.0084 6.46453 34.8817 6.56286C34.8285 6.60383 34.7672 6.6366 34.7468 6.6366C34.7059 6.6366 34.6364 6.69805 34.1948 7.10364C33.9822 7.30029 33.5038 7.89433 33.4547 8.02133C33.4424 8.0623 33.3688 8.1852 33.2952 8.30401C33.2216 8.42282 33.1603 8.54982 33.1603 8.59489C33.1603 8.63585 33.1439 8.68502 33.1235 8.7096C33.009 8.8366 32.7555 9.75839 32.6696 10.3852C32.5797 11.0325 32.6451 12.0362 32.8128 12.6589C32.8455 12.7819 32.8741 12.917 32.8741 12.958C32.8741 13.0359 33.1112 13.6381 33.2298 13.8675C33.4588 14.3182 33.5242 14.4247 33.6918 14.6459C33.9822 15.0392 34.665 15.6906 34.7795 15.6906C34.804 15.6906 34.8531 15.7193 34.8817 15.7602C34.943 15.8299 35.4132 16.0593 35.7567 16.1822C35.9284 16.2437 36.2433 16.3133 36.7585 16.4035C36.9915 16.4444 37.8665 16.3912 38.2631 16.3092Z" fill="black"/>
<path d="M26.291 11.1644V5.49023H26.659H27.027V11.1644V16.8385H26.659H26.291V11.1644Z" fill="black"/>
<path d="M49.3929 11.4921V6.14573H47.4098H45.4268V5.81798V5.49023H49.7609H54.095V5.81798V6.14573H52.1324H50.1698V11.4921V16.8385H49.7813H49.3929V11.4921Z" fill="black"/>
<path d="M55.6484 16.7975C55.6484 16.777 55.6852 16.6787 55.7302 16.5845C55.8406 16.3346 56.0941 15.7077 56.18 15.4619C56.2209 15.3472 56.3026 15.1506 56.3599 15.0195C56.4171 14.8925 56.4662 14.7696 56.4662 14.7491C56.4662 14.7286 56.5234 14.5852 56.593 14.4336C56.6625 14.282 56.7442 14.0772 56.781 13.9748C56.8138 13.8724 56.8833 13.6962 56.9364 13.5815C56.9855 13.4709 57.0509 13.3029 57.0795 13.2128C57.1081 13.1226 57.1858 12.9383 57.2472 12.8072C57.3126 12.672 57.3657 12.5409 57.3657 12.5122C57.3657 12.4835 57.423 12.336 57.4925 12.1804C57.562 12.0288 57.6438 11.828 57.6724 11.7379C57.7378 11.5454 58.0077 10.8858 58.159 10.5539C58.2162 10.4269 58.2653 10.304 58.2653 10.2794C58.2653 10.2589 58.3307 10.0787 58.4125 9.88204C58.7805 8.99303 58.8336 8.86603 58.8582 8.7759C58.8745 8.72264 58.9481 8.54238 59.0258 8.37441C59.1035 8.20644 59.1648 8.04256 59.1648 8.01388C59.1648 7.98521 59.1894 7.90737 59.2221 7.84182C59.3243 7.62878 59.4388 7.35429 59.4715 7.25187C59.4878 7.19452 59.5573 7.03474 59.6187 6.89135C59.6841 6.75206 59.7373 6.61686 59.7373 6.59228C59.7373 6.5718 59.7741 6.46938 59.819 6.36696C59.9826 6.00234 60.0521 5.83437 60.1052 5.6664L60.1584 5.49023H60.5755H60.9925L61.1234 5.77701C61.1929 5.93679 61.2501 6.08428 61.2501 6.10886C61.2501 6.13344 61.2992 6.25634 61.3564 6.38334C61.4137 6.51035 61.5036 6.73567 61.5568 6.88316C61.6549 7.16174 61.749 7.40346 61.9575 7.88688C62.0229 8.04666 62.121 8.29247 62.1701 8.43996C62.2723 8.73083 62.3745 8.99303 62.5831 9.47645C62.6608 9.65262 62.7221 9.82469 62.7221 9.85336C62.7221 9.88204 62.7834 10.0418 62.8611 10.2098C62.9347 10.3737 63.0083 10.5539 63.0247 10.6113C63.041 10.6686 63.1146 10.8612 63.1882 11.0414C63.4417 11.656 63.5071 11.8198 63.5848 12.0452C63.6298 12.1681 63.683 12.3074 63.7034 12.3524C63.8342 12.6392 63.9078 12.8236 63.9078 12.8604C63.9078 12.885 63.9692 13.0448 64.0469 13.221C64.1246 13.3971 64.2186 13.6306 64.2554 13.7454C64.2963 13.856 64.3699 14.0444 64.423 14.1632C64.4762 14.2779 64.5212 14.3927 64.5212 14.4172C64.5212 14.4377 64.5866 14.6057 64.6643 14.786C64.742 14.9621 64.8074 15.1342 64.8074 15.1588C64.8074 15.1874 64.8728 15.3472 64.9505 15.5152C65.0282 15.6832 65.1059 15.8716 65.1222 15.9331C65.1345 15.9904 65.1999 16.1584 65.2694 16.3059C65.3348 16.4534 65.3962 16.6336 65.4084 16.7074L65.433 16.8385H65.0241H64.6152L64.5621 16.6664C64.5334 16.5681 64.4517 16.3468 64.374 16.1707C64.2963 15.9945 64.235 15.8225 64.235 15.7897C64.235 15.761 64.1859 15.6299 64.1286 15.4988C64.0673 15.3677 63.9896 15.1588 63.9487 15.0359C63.9078 14.913 63.8179 14.663 63.7443 14.4828C63.4335 13.7167 63.3354 13.4545 63.3354 13.4094C63.3354 13.3807 63.27 13.221 63.1923 13.0448C63.1146 12.8727 63.0492 12.7048 63.0492 12.6761C63.0492 12.631 62.996 12.4999 62.8039 12.0657C62.7712 11.9919 62.6894 11.7625 62.4686 11.1439C62.4277 11.021 62.35 10.8284 62.2969 10.7137C62.2437 10.6031 62.1905 10.4638 62.1742 10.4064C62.1333 10.2671 61.8471 9.52152 61.6754 9.10774C61.5977 8.92338 61.5363 8.75131 61.5363 8.72673C61.5363 8.69806 61.4709 8.53009 61.3932 8.34573C61.3155 8.16547 61.2501 7.9934 61.2501 7.96472C61.2501 7.93604 61.197 7.79266 61.1275 7.64517C61.062 7.49359 60.9803 7.28465 60.9475 7.17813C60.9148 7.07161 60.8453 6.88316 60.7922 6.76025C60.7349 6.63735 60.6777 6.49806 60.6613 6.45299C60.6368 6.38744 60.6041 6.42431 60.4896 6.67012C60.4119 6.83809 60.3506 6.99377 60.3506 7.02655C60.3506 7.05523 60.277 7.23958 60.187 7.43213C60.0971 7.62469 60.0235 7.80495 60.0235 7.82953C60.0235 7.8705 59.9458 8.07124 59.5901 8.91928C59.5124 9.10364 59.451 9.27571 59.451 9.30029C59.451 9.32077 59.4142 9.4191 59.3693 9.51742C59.2834 9.70178 59.0013 10.4064 58.8704 10.7752C58.8254 10.8981 58.7355 11.1152 58.6701 11.2586C58.6047 11.402 58.5515 11.5413 58.5515 11.574C58.5515 11.6027 58.4861 11.7666 58.4084 11.9346C58.3307 12.1025 58.2653 12.2623 58.2653 12.291C58.2653 12.3197 58.1917 12.5081 58.1017 12.7089C58.0118 12.9137 57.9382 13.1022 57.9382 13.1267C57.9382 13.1554 57.8891 13.2783 57.8319 13.4012C57.7705 13.5241 57.6888 13.7331 57.6438 13.8642C57.5988 13.9994 57.5211 14.2001 57.4639 14.3148C57.4107 14.4254 57.3657 14.5401 57.3657 14.5688C57.3657 14.5934 57.2921 14.7819 57.2022 14.9867C57.1122 15.1874 57.0386 15.3718 57.0386 15.3964C57.0386 15.4169 56.9732 15.5766 56.8955 15.7487C56.8178 15.9249 56.7524 16.0887 56.7524 16.1174C56.7524 16.1502 56.6829 16.3223 56.6011 16.5066L56.4498 16.8385H56.0491C55.8161 16.8385 55.6484 16.8221 55.6484 16.7975Z" fill="black"/>
<path d="M15.7005 16.1454C15.5615 16.0102 15.5165 15.8668 15.5533 15.6784C15.6065 15.3916 15.9622 15.24 16.277 15.3752C16.4651 15.453 16.5551 15.7152 16.4774 15.9569C16.3997 16.1905 16.2934 16.2642 16.0358 16.2642C15.8477 16.2642 15.7986 16.2478 15.7005 16.1454Z" fill="black"/>
<path d="M7.92388 15.9363C7.32691 15.7561 7.20834 14.8793 7.7358 14.568C8.2101 14.2894 8.78253 14.5762 8.85613 15.1251C8.88066 15.2849 8.86431 15.3587 8.77435 15.543C8.6844 15.7315 8.63125 15.7847 8.45543 15.8708C8.23872 15.9814 8.11606 15.9937 7.92388 15.9363Z" fill="black"/>
<path d="M16.9026 15.7569C16.7431 15.6013 16.7227 15.5562 16.7227 15.4005C16.7227 15.0687 16.9598 14.8311 17.291 14.8311C17.4709 14.8311 17.52 14.8515 17.659 14.9744C17.9207 15.2121 17.9207 15.507 17.6631 15.7774C17.5241 15.9249 17.4954 15.9372 17.2951 15.9372C17.0947 15.9372 17.0661 15.9249 16.9026 15.7569Z" fill="black"/>
<path d="M5.68363 15.7117C5.68363 15.6707 5.64275 15.6503 5.56506 15.6503C5.47919 15.6503 5.40151 15.6011 5.2584 15.4454C5.09076 15.2652 5.07031 15.2242 5.07031 15.048C5.07031 14.8063 5.17662 14.5892 5.35244 14.4868C5.52417 14.3884 5.86354 14.3802 6.05572 14.4745C6.30922 14.6015 6.41553 15.0071 6.27651 15.3348C6.21518 15.4864 5.99438 15.6503 5.85128 15.6503C5.80221 15.6503 5.76541 15.6748 5.76541 15.7117C5.76541 15.7445 5.74906 15.7732 5.72452 15.7732C5.70408 15.7732 5.68363 15.7445 5.68363 15.7117Z" fill="black"/>
<path d="M10.6632 15.6134C10.4874 15.556 10.2175 15.3225 10.1562 15.1709C10.0867 15.0111 10.0867 14.5728 10.1521 14.3884C10.2134 14.2204 10.5119 13.9828 10.7 13.9459C10.9862 13.8927 11.2602 13.9459 11.4441 14.0934C11.8857 14.4499 11.8857 15.1217 11.4401 15.4659C11.2806 15.5929 11.207 15.6175 11.0107 15.6338C10.8799 15.642 10.7245 15.6297 10.6632 15.6134Z" fill="black"/>
<path d="M18.2846 15.117C18.0965 15.0023 17.9902 14.8056 17.9902 14.5721C17.9902 14.3509 18.027 14.2649 18.1783 14.1133C18.5668 13.7241 19.2578 14.0068 19.2578 14.5516C19.2578 14.7811 19.1106 15.0555 18.9429 15.1334C18.7508 15.2235 18.4523 15.2194 18.2846 15.117Z" fill="black"/>
<path d="M14.5474 14.8761C14.388 14.7286 14.3757 14.704 14.3757 14.4869C14.3716 14.2615 14.3798 14.2451 14.5434 14.0895C14.6987 13.9461 14.7355 13.9297 14.9359 13.9297C15.1362 13.9297 15.1689 13.9461 15.308 14.0813C15.5697 14.3435 15.5656 14.6302 15.2957 14.8842C15.1485 15.0194 15.1076 15.0358 14.9236 15.0358C14.7396 15.0358 14.6987 15.0194 14.5474 14.8761Z" fill="black"/>
<path d="M15.9171 14.2162C15.8435 14.1752 15.7454 14.0605 15.6963 13.9662C15.4305 13.4418 15.9539 12.8642 16.5059 13.0731C16.7389 13.1592 16.8861 13.3886 16.8861 13.6631C16.8861 13.913 16.7594 14.1424 16.5754 14.2325C16.3791 14.3227 16.0806 14.3186 15.9171 14.2162Z" fill="black"/>
<path d="M7.62922 14.1135C7.61695 14.0807 7.57607 14.052 7.53927 14.052C7.31847 14.052 7.03634 13.7038 7.03225 13.4293C7.02816 12.9828 7.49429 12.6632 7.91544 12.823C8.20574 12.9336 8.39383 13.3064 8.30387 13.6014C8.24663 13.7939 8.04219 14.0029 7.87864 14.0398C7.81322 14.052 7.75188 14.0889 7.73962 14.1176C7.711 14.1913 7.66193 14.1913 7.62922 14.1135Z" fill="black"/>
<path d="M19.912 14.1345C19.912 14.0976 19.8302 14.0444 19.7116 13.9993C19.3641 13.8764 19.1392 13.5159 19.2005 13.1881C19.2455 12.9423 19.4213 12.7129 19.6176 12.6351C19.9488 12.5122 20.3699 12.6023 20.5416 12.8358C20.6152 12.9341 20.6275 13.012 20.6275 13.3233V13.692L20.4639 13.8313C20.374 13.9092 20.2391 13.987 20.1614 14.0075C20.0878 14.0321 20.0019 14.0812 19.9692 14.1222C19.9242 14.1796 19.916 14.1837 19.912 14.1345Z" fill="black"/>
<path d="M5.36795 13.9214C5.23302 13.8271 5.11035 13.5895 5.11035 13.4338C5.11035 13.3232 5.20439 13.1512 5.32706 13.0364C5.43746 12.934 5.7155 12.8972 5.93629 12.9586C6.18162 13.0242 6.337 13.4666 6.20207 13.7124C6.0426 13.9992 5.62554 14.1016 5.36795 13.9214Z" fill="black"/>
<path d="M13.0759 13.8596C12.9164 13.835 12.712 13.5605 12.6874 13.3352C12.6711 13.2041 12.6874 13.1098 12.761 12.9664C12.896 12.6961 12.9655 12.6592 13.3335 12.6592H13.6483L13.7955 12.8312C13.9999 13.0689 14.0122 13.3843 13.8282 13.6506C13.681 13.8596 13.4684 13.9169 13.0759 13.8596Z" fill="black"/>
<path d="M9.47739 13.425C9.29748 13.2693 9.24023 13.1341 9.24023 12.8719C9.24023 12.663 9.30974 12.3721 9.35472 12.3721C9.37108 12.3721 9.43241 12.3271 9.49374 12.2697C9.66547 12.114 9.92716 12.0608 10.1725 12.1427C10.6672 12.3107 10.8553 12.9006 10.5405 13.3062C10.3565 13.5438 10.3156 13.5602 9.95987 13.5602C9.64503 13.5602 9.62049 13.552 9.47739 13.425Z" fill="black"/>
<path d="M0.878841 13.2244C0.645779 13.1425 0.335029 12.8966 0.175565 12.6672C0.0201899 12.4419 0.0201899 12.4378 0.00792345 11.9871C-0.004343 11.5283 0.0365452 11.3194 0.171476 11.176C0.200098 11.1473 0.257341 11.0736 0.294141 11.0121C0.367739 10.9015 0.424983 10.8605 0.797065 10.6721C1.09146 10.5246 1.50852 10.5287 1.8438 10.6762C1.97873 10.7376 2.08504 10.8032 2.08504 10.8196C2.08504 10.84 2.10957 10.8564 2.1382 10.8564C2.20362 10.8564 2.37126 11.0285 2.37126 11.094C2.37126 11.1227 2.38761 11.1432 2.40806 11.1432C2.42441 11.1432 2.48983 11.2497 2.55117 11.3849C2.73107 11.7864 2.68201 12.3804 2.44486 12.6426C2.40397 12.6877 2.37126 12.7451 2.37126 12.7696C2.37126 12.8434 2.00735 13.1179 1.79474 13.1957C1.56985 13.2817 1.08737 13.2981 0.878841 13.2244Z" fill="black"/>
<path d="M17.5409 13.2244C17.5409 13.1834 17.4796 13.1384 17.3896 13.1056C16.8908 12.9458 16.7027 12.4583 16.9562 11.9994C17.0871 11.77 17.2792 11.6758 17.6022 11.6758C17.9866 11.6799 18.2401 11.897 18.2933 12.2698C18.3301 12.5115 18.2033 12.9458 18.097 12.9458C18.0725 12.9458 18.007 12.9827 17.9498 13.0277C17.8925 13.0728 17.8149 13.1097 17.7781 13.1097C17.7372 13.1097 17.6718 13.1506 17.6227 13.1998C17.5573 13.2694 17.5409 13.2776 17.5409 13.2244Z" fill="black"/>
<path d="M14.3307 12.6711C14.114 12.6137 13.9055 12.2696 13.9014 11.9705C13.8973 11.3929 14.5597 11.0405 15.0422 11.3601C15.4265 11.6141 15.4756 12.1713 15.1526 12.5236C15.0258 12.6629 15.0054 12.6711 14.7151 12.6834C14.5474 12.6875 14.3757 12.6834 14.3307 12.6711Z" fill="black"/>
<path d="M5.695 12.5892C5.46602 12.3803 5.41696 12.1263 5.56006 11.8928C5.71135 11.6388 6.14477 11.6265 6.33694 11.8682C6.51276 12.0935 6.49231 12.3066 6.27561 12.5237C6.16521 12.6343 6.11205 12.6589 5.96077 12.6589C5.84219 12.6589 5.74815 12.6343 5.695 12.5892Z" fill="black"/>
<path d="M7.36747 12.3515C7.15076 12.2573 7.05263 11.909 7.15485 11.6059C7.21618 11.4338 7.48195 11.2904 7.69048 11.3191C8.00123 11.3601 8.18932 11.5649 8.18932 11.8558C8.18932 12.2901 7.78453 12.5318 7.36747 12.3515Z" fill="black"/>
<path d="M20.8439 12.3155C20.6844 12.2581 20.4472 12.0779 20.3655 11.9468C20.296 11.8444 20.2632 11.4838 20.296 11.2503C20.3532 10.8898 20.7948 10.5784 21.1914 10.6235C21.956 10.7177 22.2341 11.6723 21.6412 12.1639C21.3958 12.3687 21.1301 12.4179 20.8439 12.3155Z" fill="black"/>
<path d="M9.48602 11.7583C9.48602 11.7378 9.44513 11.7173 9.39198 11.7173C9.24887 11.7173 9.00354 11.5247 8.93403 11.3609C8.74186 10.902 9.02399 10.4473 9.49829 10.4473C9.87446 10.4473 10.1402 10.7136 10.1402 11.0946C10.1402 11.3076 10.1321 11.3281 9.93988 11.5165C9.82948 11.6313 9.70682 11.7173 9.65366 11.7173C9.60869 11.7173 9.5678 11.7378 9.5678 11.7583C9.5678 11.7828 9.55144 11.7992 9.52691 11.7992C9.50647 11.7992 9.48602 11.7828 9.48602 11.7583Z" fill="black"/>
<path d="M18.5101 11.4138C18.2893 11.3524 18.0521 11.1516 17.9663 10.9509C17.8763 10.7378 17.8927 10.3323 18.0031 10.152C18.183 9.85293 18.5182 9.68496 18.8535 9.72183C19.3769 9.78328 19.7163 10.3282 19.565 10.8485C19.4301 11.2991 18.9844 11.5367 18.5101 11.4138Z" fill="black"/>
<path d="M3.70378 10.9266C3.42983 10.82 3.19268 10.5824 3.06184 10.2916C2.94326 10.0212 2.95553 9.61148 3.09046 9.35747C3.3317 8.89863 3.61792 8.72656 4.14129 8.72656C4.54608 8.72656 4.65239 8.75934 4.8691 8.94369C5.1962 9.22638 5.3434 9.57461 5.30251 9.972C5.22482 10.7422 4.43159 11.2133 3.70378 10.9266Z" fill="black"/>
<path d="M15.4349 10.951C15.0588 10.7543 14.8625 10.3405 14.9606 9.96362C15.0138 9.77927 15.2182 9.50478 15.3818 9.40645C15.5208 9.32042 16.0646 9.31632 16.2282 9.40236C16.3795 9.4802 16.5921 9.76698 16.6452 9.97182C16.7434 10.3323 16.5553 10.7502 16.2241 10.9223C15.9951 11.0411 15.6271 11.0534 15.4349 10.951Z" fill="black"/>
<path d="M21.547 10.0001C21.224 9.86897 20.9787 9.48387 20.9746 9.11105C20.9746 8.75873 21.1423 8.44737 21.4407 8.24662C21.592 8.1442 21.6452 8.13601 21.9805 8.13601C22.3853 8.13191 22.4875 8.17288 22.7083 8.41459C22.9577 8.68908 23.0476 9.13154 22.9168 9.447C22.8432 9.62316 22.5774 9.955 22.5079 9.955C22.4793 9.955 22.4016 9.98368 22.3403 10.0165C22.1808 10.0984 21.776 10.0902 21.547 10.0001Z" fill="black"/>
<path d="M6.57481 9.63218C6.41534 9.5994 6.11686 9.36178 6.01055 9.18152C5.96557 9.10368 5.94922 8.9562 5.94922 8.66123V8.24745L6.10459 8.05899C6.37854 7.72305 6.84058 7.61244 7.29035 7.77221C7.94865 8.00983 8.08358 8.948 7.53159 9.44372C7.30262 9.64856 6.98778 9.71002 6.57481 9.63218Z" fill="black"/>
<path d="M13.0065 9.41413C12.7611 9.28303 12.6671 9.09867 12.6834 8.8078C12.7039 8.52921 12.7938 8.38992 13.0351 8.27111C13.4644 8.05808 13.9428 8.37763 13.9428 8.88154C13.9428 9.17651 13.6729 9.4592 13.3663 9.49197C13.2313 9.50426 13.1414 9.48787 13.0065 9.41413Z" fill="black"/>
<path d="M19.2412 9.1158C18.9959 9.02977 18.8896 8.93144 18.7505 8.66515C18.5052 8.19811 18.6279 7.66962 19.0449 7.37055C19.2248 7.23945 19.2494 7.23535 19.6051 7.23535C19.875 7.23535 20.0058 7.25174 20.0958 7.3009C20.2675 7.39922 20.4719 7.62455 20.5455 7.79662C20.6232 7.98098 20.6273 8.39885 20.5496 8.57502C20.4678 8.77576 20.198 9.03796 20.0017 9.1117C19.7891 9.19364 19.4579 9.19364 19.2412 9.1158Z" fill="black"/>
<path d="M9.22022 9.06602C9.17524 9.05782 9.09755 9.04144 9.04848 9.03324C8.90947 9.00047 8.70502 8.80792 8.62325 8.62356C8.48014 8.3122 8.55783 7.80419 8.77862 7.61574C8.90538 7.50512 9.22022 7.37402 9.35923 7.37402C9.71905 7.37402 10.087 7.61164 10.1729 7.89842C10.3896 8.61536 9.89896 9.2135 9.22022 9.06602Z" fill="black"/>
<path d="M11.3296 9.05401C11.1865 9.03353 11.1129 8.98846 11.0066 8.86555C10.8389 8.673 10.7939 8.56649 10.7939 8.35755C10.7939 8.15271 10.8553 7.99703 10.9902 7.84954C11.1415 7.68976 11.3214 7.62012 11.5831 7.62012C11.7712 7.62012 11.8284 7.6406 11.992 7.7676C12.2169 7.94377 12.2823 8.10764 12.2577 8.44358C12.2414 8.66071 12.2209 8.70578 12.0819 8.84917C11.9961 8.9393 11.8938 9.02123 11.8611 9.02943C11.7017 9.0704 11.4931 9.08269 11.3296 9.05401Z" fill="black"/>
<path d="M16.3261 8.73039C15.9827 8.64026 15.6924 8.206 15.6924 7.78402C15.6924 7.18998 16.0931 6.80078 16.7023 6.80078C17.0621 6.80078 17.3524 6.97285 17.5651 7.30879C17.6632 7.46857 17.6714 8.0708 17.5732 8.25516C17.4956 8.39445 17.2788 8.61158 17.1398 8.68532C17.0172 8.74678 16.502 8.77546 16.3261 8.73039Z" fill="black"/>
<path d="M2.59566 8.16907C2.36669 8.08714 2.15407 7.90278 2.02323 7.66926C1.93736 7.52177 1.90465 7.40296 1.8883 7.16125C1.87194 6.87447 1.88012 6.82531 1.99052 6.58769C2.0723 6.41563 2.17043 6.28043 2.28082 6.1944C2.72651 5.84207 3.43796 5.86255 3.82231 6.24356C4.09626 6.51395 4.16986 6.69831 4.16986 7.08751C4.16986 7.47671 4.09217 7.66926 3.82231 7.93555C3.54427 8.21004 3.00046 8.31246 2.59566 8.16907Z" fill="black"/>
<path d="M13.3294 7.36179C13.0145 7.25118 12.9042 6.82511 13.1086 6.51375C13.2026 6.37036 13.2353 6.35397 13.4357 6.3253C13.5911 6.30891 13.7096 6.3171 13.8119 6.35807C13.9427 6.40723 13.9713 6.4441 14.0368 6.62846C14.139 6.93982 14.0776 7.15695 13.8487 7.30444C13.6647 7.42325 13.5502 7.43554 13.3294 7.36179Z" fill="black"/>
<path d="M5.40548 6.8624C5.1806 6.76407 5.00478 6.6043 4.89029 6.38717C4.78807 6.20281 4.77581 6.14545 4.78807 5.86277C4.80443 5.5678 4.81669 5.53093 4.9598 5.34657C5.19287 5.0434 5.39322 4.94098 5.7653 4.94098C6.03516 4.93689 6.09649 4.95327 6.29685 5.06798C7.00421 5.47767 6.87746 6.60839 6.09649 6.87469C5.90841 6.94024 5.56904 6.93204 5.40548 6.8624Z" fill="black"/>
<path d="M11.8569 6.64554C11.6565 6.54721 11.5584 6.32189 11.5788 6.01463C11.6074 5.63362 11.8569 5.42468 12.2535 5.45746C12.4497 5.47384 12.4988 5.49842 12.6419 5.64591C12.7891 5.7893 12.8136 5.83846 12.8259 6.03101C12.8545 6.4325 12.5888 6.71518 12.184 6.71518C12.0818 6.71518 11.9346 6.68241 11.8569 6.64554Z" fill="black"/>
<path d="M19.5855 6.32105C19.4097 6.29237 19.0908 6.01788 18.9559 5.77617C18.8414 5.57542 18.8291 5.51397 18.8291 5.22309C18.8291 4.86257 18.8741 4.73967 19.1235 4.4406C19.3157 4.20298 19.606 4.08008 19.974 4.08008C20.4851 4.08008 20.8285 4.3054 21.0493 4.78473C21.1311 4.96499 21.1434 5.05103 21.1311 5.27635C21.1229 5.42794 21.082 5.62458 21.0371 5.71471C20.9267 5.94004 20.5955 6.2555 20.4115 6.30876C20.2684 6.34563 19.8022 6.35382 19.5855 6.32105Z" fill="black"/>
<path d="M7.88294 6.26452C7.72348 6.17439 7.51904 5.94087 7.48224 5.80977C7.38002 5.45335 7.50268 4.89618 7.69486 4.84292C7.73575 4.83472 7.76846 4.81424 7.76846 4.79785C7.76846 4.72821 8.07512 4.62988 8.29183 4.62988C8.77431 4.63398 9.11777 4.98631 9.11777 5.48202C9.11777 5.75242 9.01555 5.96545 8.78657 6.1621C8.61893 6.30549 8.60258 6.30958 8.28365 6.30958C8.09965 6.30958 7.91974 6.2891 7.88294 6.26452Z" fill="black"/>
<path d="M10.0301 6.23118C9.96061 6.18612 9.85021 6.06731 9.79297 5.96079C9.69893 5.80102 9.68257 5.73956 9.69893 5.53472C9.73164 5.10046 10.0669 4.80958 10.4922 4.84236C10.9869 4.88333 11.269 5.35446 11.1014 5.85837C10.9992 6.16973 10.7906 6.30902 10.4308 6.30902C10.2346 6.30902 10.1242 6.28854 10.0301 6.23118Z" fill="black"/>
<path d="M16.6206 5.90794C16.3343 5.79323 16.1176 5.58019 15.9623 5.26473C15.8682 5.06399 15.856 5.00254 15.8723 4.75263C15.8887 4.52321 15.9214 4.42079 16.0318 4.23643C16.1095 4.10943 16.228 3.97013 16.2935 3.92097C16.363 3.87181 16.4243 3.82265 16.4366 3.80216C16.4856 3.73661 16.825 3.64648 17.0254 3.64648C17.2789 3.64648 17.5855 3.74481 17.6877 3.85542C17.7245 3.89639 17.7818 3.93326 17.8145 3.93326C17.8431 3.93326 17.884 3.96604 17.8963 4.00701C17.9126 4.04388 17.9658 4.12991 18.0148 4.19136C18.1334 4.33475 18.1948 4.54779 18.1948 4.81818C18.1948 5.01892 18.1048 5.35896 18.0394 5.40812C18.023 5.42041 17.9617 5.49416 17.9045 5.572C17.8431 5.65393 17.6837 5.77274 17.5405 5.85058C17.332 5.9571 17.238 5.98168 17.0335 5.97758C16.8945 5.97758 16.7105 5.94891 16.6206 5.90794Z" fill="black"/>
<path d="M13.8936 5.67381C13.681 5.555 13.6033 5.26003 13.7178 4.98964C13.7628 4.87083 13.8078 4.83805 13.9631 4.79299C14.188 4.72744 14.4456 4.79299 14.5438 4.94047C14.8259 5.37064 14.3434 5.91552 13.8936 5.67381Z" fill="black"/>
<path d="M12.8309 4.81017C12.6796 4.73233 12.5938 4.55207 12.5938 4.33494C12.5978 4.0031 12.7982 3.81055 13.1457 3.81055C13.4933 3.81055 13.6936 4.0031 13.6977 4.33494C13.6977 4.55617 13.6078 4.73233 13.4524 4.81427C13.3011 4.89211 12.974 4.89211 12.8309 4.81017Z" fill="black"/>
<path d="M4.96769 4.32612C4.68965 4.19502 4.51792 3.99837 4.44023 3.73208C4.35845 3.44939 4.35845 3.40023 4.44841 3.09707C4.57107 2.671 4.91862 2.41699 5.37657 2.41699C5.66687 2.41699 5.88767 2.51122 6.09211 2.71196C6.32517 2.94139 6.41922 3.35926 6.32108 3.7075C6.23113 4.01066 6.02669 4.23189 5.74047 4.3425C5.44608 4.44902 5.22119 4.44493 4.96769 4.32612Z" fill="black"/>
<path d="M11.4726 4.17086C11.3376 4.09302 11.2068 3.92095 11.1618 3.75708C11.0228 3.26546 11.4603 2.85987 11.9878 2.99507C12.1554 3.04013 12.2085 3.077 12.3067 3.23268C12.5029 3.52356 12.4702 3.79395 12.2126 4.06844C12.0777 4.21183 12.0613 4.22002 11.8119 4.22002C11.6688 4.22002 11.5134 4.19544 11.4726 4.17086Z" fill="black"/>
<path d="M7.64146 3.80958C7.2612 3.69487 7.03223 3.37942 7.03223 2.96564C7.03223 2.66657 7.14262 2.45763 7.39204 2.26508C7.5556 2.14217 7.59239 2.12988 7.86226 2.12988C8.18118 2.13398 8.25478 2.16266 8.47967 2.3634C8.65958 2.53137 8.725 2.7608 8.69637 3.10083C8.66775 3.3958 8.60233 3.51052 8.38562 3.6621C8.13621 3.83417 7.88679 3.88742 7.64146 3.80958Z" fill="black"/>
<path d="M9.79235 3.80169C9.47342 3.68698 9.28534 3.41659 9.28125 3.06426C9.28125 2.85532 9.29761 2.81435 9.4448 2.62999C9.592 2.43744 9.62062 2.42106 9.83324 2.39648C10.1808 2.35141 10.3934 2.39648 10.5365 2.55215C10.7164 2.74061 10.7532 2.83484 10.7532 3.09294C10.7532 3.36333 10.6878 3.50262 10.4875 3.6583C10.2544 3.84266 10.0336 3.88772 9.79235 3.80169Z" fill="black"/>
<path d="M16.2285 2.60559C15.8605 2.47449 15.5989 2.22868 15.4271 1.86406C15.1859 1.33966 15.3372 0.65959 15.7706 0.299069C16.0977 0.024581 16.1754 0 16.6742 0H17.1199L17.3611 0.15568C17.8027 0.442458 17.9908 0.786592 17.9908 1.30279C17.9908 1.61415 17.8968 1.96238 17.7782 2.09348C17.7332 2.14674 17.6678 2.22868 17.6392 2.27784C17.6065 2.3229 17.447 2.42942 17.2835 2.51136C17.0136 2.64655 16.9482 2.66294 16.6783 2.66294C16.5107 2.65885 16.3103 2.63426 16.2285 2.60559Z" fill="black"/>
</g>
<path d="M79.6615 8.92152C79.5764 8.53665 79.4321 8.16473 79.2285 7.80577C79.025 7.4431 78.7641 7.11744 78.4458 6.82879C78.1313 6.53644 77.7612 6.30515 77.3356 6.13492C76.9138 5.96469 76.4401 5.87957 75.9146 5.87957C75.1115 5.87957 74.3992 6.09051 73.7774 6.51239C73.1594 6.93056 72.6747 7.52822 72.3231 8.30536C71.9752 9.07879 71.8013 9.99471 71.8013 11.0531C71.8013 12.1004 71.9752 13.0126 72.3231 13.7897C72.6709 14.5669 73.1576 15.1682 73.783 15.5938C74.4121 16.0157 75.143 16.2266 75.9756 16.2266C76.7195 16.2266 77.3782 16.0545 77.9518 15.7104C78.5291 15.3662 78.9787 14.874 79.3007 14.2338C79.6226 13.5936 79.7799 12.8276 79.7725 11.9357L80.0168 12.0523H76.1533V11.4084H80.4497V12.0523C80.4497 13.0552 80.2573 13.9193 79.8724 14.6446C79.4913 15.3662 78.9621 15.9213 78.2848 16.3099C77.6113 16.6984 76.8416 16.8927 75.9756 16.8927C74.9987 16.8927 74.1457 16.6503 73.4166 16.1656C72.6876 15.6808 72.1214 15.0017 71.718 14.1283C71.3184 13.2513 71.1185 12.2262 71.1185 11.0531C71.1185 10.1723 71.2332 9.373 71.4627 8.65507C71.6921 7.93714 72.0196 7.32283 72.4452 6.81214C72.8708 6.29775 73.3778 5.90363 73.9662 5.62978C74.5546 5.35223 75.2041 5.21346 75.9146 5.21346C76.5585 5.21346 77.1376 5.32078 77.652 5.53541C78.1664 5.74635 78.6105 6.0313 78.9843 6.39027C79.3617 6.74553 79.667 7.14335 79.9002 7.58373C80.1333 8.02041 80.2906 8.46633 80.372 8.92152H79.6615ZM84.353 16.7373H83.6203L87.7225 5.36888H88.5218L92.624 16.7373H91.8913L88.1499 6.26259H88.0944L84.353 16.7373ZM85.3911 12.4575H90.8532V13.1014H85.3911V12.4575ZM102.749 8.21099C102.689 7.50416 102.401 6.93241 101.883 6.49573C101.368 6.05906 100.702 5.84072 99.8842 5.84072C99.3328 5.84072 98.8425 5.94249 98.4132 6.14602C97.9839 6.34956 97.6472 6.62711 97.4029 6.97867C97.1587 7.33023 97.0366 7.7336 97.0366 8.18879C97.0366 8.48114 97.0921 8.74573 97.2031 8.98258C97.3178 9.21572 97.4788 9.4248 97.686 9.60984C97.8933 9.79117 98.1394 9.9503 98.4243 10.0872C98.7093 10.2241 99.0238 10.3444 99.368 10.448L100.611 10.8144C101.037 10.9439 101.429 11.0938 101.788 11.264C102.151 11.4343 102.465 11.6378 102.732 11.8746C103.002 12.1078 103.211 12.3816 103.359 12.6962C103.511 13.0107 103.587 13.3734 103.587 13.7842C103.587 14.3837 103.431 14.9203 103.12 15.394C102.813 15.8677 102.375 16.2414 101.805 16.5153C101.239 16.7854 100.571 16.9205 99.801 16.9205C99.0682 16.9205 98.4299 16.7965 97.8859 16.5486C97.3456 16.3006 96.9182 15.9565 96.6036 15.5161C96.289 15.072 96.1114 14.5613 96.0707 13.984H96.7812C96.8182 14.454 96.9681 14.8611 97.2309 15.2052C97.4973 15.5457 97.8507 15.8084 98.2911 15.9935C98.7315 16.1785 99.2348 16.271 99.801 16.271C100.412 16.271 100.95 16.1674 101.416 15.9602C101.883 15.7492 102.247 15.4569 102.51 15.0831C102.773 14.7093 102.904 14.2745 102.904 13.7786C102.904 13.379 102.81 13.0366 102.621 12.7517C102.432 12.4667 102.153 12.2207 101.783 12.0134C101.416 11.8062 100.961 11.6211 100.417 11.4583L99.0904 11.0586C98.2023 10.7885 97.5232 10.4203 97.0532 9.954C96.5869 9.48772 96.3538 8.90671 96.3538 8.21099C96.3538 7.62629 96.5092 7.10819 96.8201 6.65671C97.1309 6.20153 97.5528 5.84442 98.0857 5.58537C98.6223 5.32633 99.2274 5.1968 99.9009 5.1968C100.578 5.1968 101.176 5.32818 101.694 5.59092C102.212 5.84997 102.623 6.20708 102.926 6.66226C103.23 7.11374 103.398 7.62999 103.431 8.21099H102.749Z" fill="black"/>
<defs>
<clipPath id="clip0_140_18">
<rect width="65.4211" height="22" fill="white"/>
</clipPath>
</defs>
</svg>
