<svg xmlns="http://www.w3.org/2000/svg" version="1.1" xmlns:xlink="http://www.w3.org/1999/xlink" width="13" height="13"><svg width="13" height="13" viewBox="0 0 13 13" fill="none" xmlns="http://www.w3.org/2000/svg">
<path d="M7.0519 12.3594C6.51738 11.9746 6.76266 11.1631 7.41287 11.1631C7.79699 11.1631 8.07234 11.439 8.07234 11.8215C8.07234 11.9722 8.06772 11.9908 7.94971 12.2064C7.92888 12.2435 7.85252 12.313 7.78079 12.3617C7.65121 12.4498 7.65121 12.4498 7.41519 12.4498H7.17685L7.0519 12.3594Z" fill="black"></path>
<path d="M4.72822 12.2187C4.59864 12.1469 4.50145 12.0495 4.43898 11.9243C4.36493 11.7736 4.38113 11.5417 4.476 11.4026C4.65649 11.1406 4.99432 11.0549 5.22803 11.2102C5.27662 11.2427 5.32753 11.2682 5.34141 11.2682C5.3553 11.2682 5.38306 11.3052 5.40389 11.3493C5.42471 11.3934 5.45017 11.4304 5.45942 11.4304C5.46868 11.4304 5.4895 11.4838 5.50339 11.5487C5.56355 11.7991 5.47793 12.0309 5.26968 12.1724C5.16555 12.2419 5.12853 12.2535 4.98507 12.2605C4.85086 12.2674 4.80458 12.2581 4.72822 12.2187Z" fill="black"></path>
<path d="M10.0342 12.0254C9.70792 11.9025 9.53206 11.6707 9.51123 11.3322C9.50429 11.1977 9.51123 11.1258 9.54363 11.0377C9.56677 10.9728 9.59454 10.9195 9.60379 10.9195C9.61305 10.9195 9.6223 10.9032 9.6223 10.8824C9.6223 10.8406 9.80973 10.6552 9.89998 10.6088C10.1198 10.4952 10.5178 10.5161 10.6937 10.6505C10.7469 10.6899 10.8325 10.7757 10.8834 10.8406C10.9667 10.9403 10.9852 10.9844 11.0084 11.1328C11.0708 11.5153 10.9204 11.8306 10.6057 11.9767C10.4414 12.0555 10.1753 12.0764 10.0342 12.0254Z" fill="black"></path>
<path d="M5.80923 11.3001C5.66345 11.2282 5.58941 11.1378 5.5385 10.9593C5.48759 10.7854 5.52924 10.5397 5.62412 10.4376C5.88096 10.1594 6.23268 10.1525 6.48953 10.4168C6.5682 10.5002 6.58903 10.5397 6.60985 10.6625C6.66076 10.9547 6.56357 11.1749 6.33218 11.2932C6.15632 11.3813 5.98509 11.3836 5.80923 11.3001Z" fill="black"></path>
<path d="M8.20464 11.0921C8.07043 11.0434 7.97787 10.96 7.88763 10.8139C7.81358 10.6887 7.80664 10.6655 7.80664 10.4916C7.80664 10.3386 7.81821 10.283 7.86218 10.1972C8.01952 9.88884 8.37818 9.75205 8.70213 9.87956C8.84328 9.93521 8.95204 10.0303 9.03997 10.1786C9.09319 10.2691 9.10013 10.3085 9.10245 10.48C9.10245 10.6678 9.09782 10.6864 9.02146 10.8139C8.9289 10.9646 8.83866 11.0434 8.69519 11.0944C8.57255 11.1362 8.32496 11.1362 8.20464 11.0921Z" fill="black"></path>
<path d="M3.84514 11.0476C3.64845 10.9618 3.52119 10.7369 3.55127 10.5329C3.58829 10.2825 3.83125 10.09 4.07653 10.1156C4.4699 10.155 4.66659 10.6163 4.41899 10.9131C4.32181 11.029 4.20843 11.0824 4.06033 11.0824C3.98166 11.08 3.88448 11.0661 3.84514 11.0476Z" fill="black"></path>
<path d="M4.97126 10.1481C4.82316 10.0762 4.76532 10.0229 4.71904 9.91857C4.55012 9.52906 4.84862 9.13724 5.25818 9.21375C5.38314 9.23693 5.55668 9.38764 5.59139 9.50124C5.63304 9.64035 5.6261 9.81192 5.57519 9.93016C5.51272 10.0739 5.33454 10.1782 5.15406 10.1782C5.08464 10.1759 5.00365 10.1643 4.97126 10.1481Z" fill="black"></path>
<path d="M6.848 9.96736C6.60504 9.8468 6.50554 9.61495 6.56801 9.3205C6.60272 9.15589 6.69991 9.03533 6.86651 8.94955C7.02849 8.8684 7.33393 8.89854 7.42417 9.00519C7.44037 9.02606 7.46582 9.04228 7.4797 9.04228C7.55375 9.0446 7.65556 9.29036 7.65556 9.46888C7.65556 9.65436 7.59772 9.79579 7.48433 9.88853C7.28071 10.0555 7.07477 10.081 6.848 9.96736Z" fill="black"></path>
<path d="M3.3192 9.8995C3.1873 9.86008 3.05078 9.6491 3.05078 9.48681C3.05078 9.39175 3.14334 9.23409 3.2359 9.16918C3.41176 9.0463 3.6177 9.06716 3.78893 9.22482L3.8838 9.31292V9.4984C3.8838 9.67692 3.88148 9.6862 3.80281 9.77894C3.68943 9.91109 3.50894 9.95514 3.3192 9.8995Z" fill="black"></path>
<path d="M8.88225 9.13702C8.80357 9.06051 8.77812 8.97936 8.79894 8.87271C8.82902 8.71042 9.03034 8.62464 9.20851 8.70115C9.31495 8.7452 9.36586 8.89358 9.32189 9.03037C9.27793 9.16252 9.21777 9.20426 9.07199 9.20426C8.96555 9.20426 8.93778 9.19498 8.88225 9.13702Z" fill="black"></path>
<path d="M4.48082 9.01909C4.14299 8.91708 4.07588 8.42092 4.37438 8.24472C4.6428 8.08706 4.96675 8.24935 5.0084 8.56003C5.02228 8.65045 5.01303 8.69218 4.96212 8.79652C4.91122 8.90316 4.88113 8.93331 4.78164 8.98199C4.659 9.04459 4.58958 9.05155 4.48082 9.01909Z" fill="black"></path>
<path d="M9.56275 8.91655C9.47251 8.82845 9.46094 8.80295 9.46094 8.71485C9.46094 8.52705 9.59515 8.39258 9.78257 8.39258C9.88439 8.39258 9.91216 8.40417 9.99083 8.47372C10.1389 8.6082 10.1389 8.77513 9.99314 8.92815C9.91447 9.01161 9.89827 9.01857 9.78489 9.01857C9.67151 9.01857 9.65531 9.01161 9.56275 8.91655Z" fill="black"></path>
<path d="M3.2133 8.891C3.2133 8.86782 3.19016 8.85622 3.1462 8.85622C3.0976 8.85622 3.05364 8.8284 2.97265 8.7403C2.87778 8.63829 2.86621 8.6151 2.86621 8.51541C2.86621 8.37862 2.92637 8.25574 3.02587 8.19778C3.12306 8.14213 3.31511 8.1375 3.42387 8.19082C3.56733 8.26269 3.6275 8.49222 3.54882 8.6777C3.51411 8.76348 3.38916 8.85622 3.30817 8.85622C3.28041 8.85622 3.25958 8.87013 3.25958 8.891C3.25958 8.90955 3.25032 8.92578 3.23644 8.92578C3.22487 8.92578 3.2133 8.90955 3.2133 8.891Z" fill="black"></path>
<path d="M6.03157 8.83589C5.93207 8.80343 5.77935 8.67128 5.74464 8.5855C5.70531 8.49508 5.70531 8.247 5.74233 8.14267C5.77704 8.04761 5.94595 7.91314 6.0524 7.89227C6.21437 7.86213 6.36941 7.89227 6.47353 7.97574C6.72344 8.17745 6.72344 8.55768 6.47122 8.75243C6.38098 8.8243 6.33932 8.83821 6.22826 8.84748C6.15421 8.85212 6.06628 8.84517 6.03157 8.83589Z" fill="black"></path>
<path d="M10.3443 8.55503C10.2379 8.49011 10.1777 8.37882 10.1777 8.24667C10.1777 8.12147 10.1986 8.07279 10.2842 7.987C10.504 7.76675 10.8951 7.92672 10.8951 8.23508C10.8951 8.36491 10.8118 8.52025 10.7169 8.5643C10.6081 8.61531 10.4392 8.61299 10.3443 8.55503Z" fill="black"></path>
<path d="M8.22943 8.41838C8.13918 8.33492 8.13224 8.321 8.13224 8.19813C8.12993 8.07061 8.13456 8.06134 8.22711 7.97323C8.31504 7.89209 8.33587 7.88281 8.44925 7.88281C8.56263 7.88281 8.58115 7.89209 8.65982 7.9686C8.80791 8.11698 8.8056 8.27927 8.65288 8.42302C8.56958 8.49953 8.54644 8.5088 8.44231 8.5088C8.33818 8.5088 8.31504 8.49953 8.22943 8.41838Z" fill="black"></path>
<path d="M9.00514 8.04471C8.96349 8.02152 8.90796 7.95661 8.88019 7.90328C8.72978 7.60652 9.02597 7.27961 9.33835 7.39786C9.47024 7.44654 9.55355 7.57638 9.55355 7.73172C9.55355 7.87314 9.48181 8.00298 9.37769 8.05398C9.26662 8.10499 9.0977 8.10267 9.00514 8.04471Z" fill="black"></path>
<path d="M4.31441 7.98734C4.30747 7.9688 4.28433 7.95257 4.26351 7.95257C4.13855 7.95257 3.97889 7.7555 3.97658 7.60016C3.97426 7.34744 4.23805 7.1666 4.47639 7.25702C4.64068 7.31962 4.74712 7.5306 4.69621 7.69753C4.66382 7.8065 4.54812 7.92474 4.45556 7.94561C4.41854 7.95257 4.38383 7.97343 4.37689 7.98966C4.36069 8.03139 4.33292 8.03139 4.31441 7.98734Z" fill="black"></path>
<path d="M11.2657 7.99882C11.2657 7.97795 11.2195 7.94781 11.1524 7.92231C10.9557 7.85275 10.8284 7.64873 10.8631 7.46325C10.8886 7.32414 10.9881 7.19431 11.0991 7.15026C11.2866 7.0807 11.5249 7.13171 11.6221 7.26386C11.6637 7.3195 11.6707 7.36356 11.6707 7.53976V7.74842L11.5781 7.82725C11.5272 7.8713 11.4509 7.91535 11.4069 7.92695C11.3652 7.94086 11.3167 7.96868 11.2981 7.99186C11.2727 8.02432 11.2681 8.02664 11.2657 7.99882Z" fill="black"></path>
<path d="M3.03445 7.87817C2.95809 7.82484 2.88867 7.69037 2.88867 7.60227C2.88867 7.53967 2.94189 7.44229 3.01131 7.37737C3.07379 7.31941 3.23113 7.29855 3.35609 7.33332C3.49492 7.37042 3.58285 7.62081 3.50649 7.75992C3.41625 7.92222 3.18023 7.98018 3.03445 7.87817Z" fill="black"></path>
<path d="M7.39693 7.84338C7.30669 7.82946 7.19099 7.67413 7.17711 7.54661C7.16785 7.47242 7.17711 7.41909 7.21876 7.33795C7.29512 7.18493 7.33446 7.16406 7.54271 7.16406H7.72088L7.80418 7.26144C7.91988 7.39591 7.92682 7.57443 7.8227 7.72513C7.73939 7.84338 7.61907 7.87583 7.39693 7.84338Z" fill="black"></path>
<path d="M5.36077 7.59789C5.25896 7.50979 5.22656 7.43328 5.22656 7.2849C5.22656 7.16666 5.2659 7.00204 5.29135 7.00204C5.30061 7.00204 5.33532 6.97654 5.37003 6.94408C5.46721 6.85598 5.6153 6.82584 5.75414 6.87221C6.03413 6.96727 6.14057 7.30113 5.96239 7.53066C5.85827 7.66513 5.83513 7.6744 5.63382 7.6744C5.45564 7.6744 5.44176 7.66977 5.36077 7.59789Z" fill="black"></path>
<path d="M0.494037 7.48438C0.362142 7.43801 0.186283 7.2989 0.0960395 7.16906C0.00810991 7.04155 0.00810991 7.03923 0.0011681 6.7842C-0.00577371 6.52453 0.0173657 6.40629 0.0937256 6.32514C0.109923 6.30891 0.142318 6.26718 0.163144 6.2324C0.204795 6.1698 0.23719 6.14662 0.447758 6.03997C0.614361 5.9565 0.850383 5.95882 1.04013 6.04229C1.11649 6.07706 1.17665 6.11416 1.17665 6.12343C1.17665 6.13502 1.19053 6.1443 1.20673 6.1443C1.24375 6.1443 1.33862 6.24167 1.33862 6.27877C1.33862 6.295 1.34788 6.30659 1.35945 6.30659C1.3687 6.30659 1.40573 6.36687 1.44044 6.44338C1.54225 6.67059 1.51448 7.00677 1.38027 7.15515C1.35714 7.18066 1.33862 7.21312 1.33862 7.22703C1.33862 7.26876 1.13268 7.4241 1.01236 7.46815C0.885092 7.51684 0.612047 7.52611 0.494037 7.48438Z" fill="black"></path>
<path d="M9.92383 7.48381C9.92383 7.46062 9.88912 7.43512 9.83822 7.41657C9.55592 7.32615 9.44948 7.05025 9.59294 6.79058C9.66699 6.66075 9.77574 6.60742 9.95854 6.60742C10.1761 6.60974 10.3195 6.73262 10.3496 6.9436C10.3704 7.08039 10.2987 7.32615 10.2385 7.32615C10.2246 7.32615 10.1876 7.34702 10.1552 7.37252C10.1228 7.39802 10.0789 7.41889 10.058 7.41889C10.0349 7.41889 9.99788 7.44207 9.97011 7.46989C9.93309 7.50931 9.92383 7.51395 9.92383 7.48381Z" fill="black"></path>
<path d="M8.10723 7.17163C7.98459 7.13917 7.86658 6.94442 7.86427 6.77517C7.86195 6.44826 8.23681 6.24887 8.50986 6.42972C8.72737 6.57346 8.75513 6.88877 8.57233 7.08816C8.5006 7.16699 8.48903 7.17163 8.32474 7.17858C8.22987 7.1809 8.13269 7.17858 8.10723 7.17163Z" fill="black"></path>
<path d="M3.21961 7.12461C3.09003 7.00636 3.06227 6.86262 3.14325 6.73047C3.22887 6.58672 3.47415 6.57976 3.5829 6.71655C3.6824 6.84407 3.67083 6.96463 3.54819 7.08751C3.48572 7.15011 3.45564 7.16402 3.37002 7.16402C3.30292 7.16402 3.24969 7.15011 3.21961 7.12461Z" fill="black"></path>
<path d="M4.16673 6.99063C4.04409 6.93731 3.98856 6.74024 4.04641 6.56867C4.08112 6.47129 4.23152 6.39015 4.34953 6.40638C4.52539 6.42956 4.63183 6.54548 4.63183 6.7101C4.63183 6.95585 4.40276 7.09264 4.16673 6.99063Z" fill="black"></path>
<path d="M11.7929 6.96976C11.7026 6.9373 11.5684 6.83529 11.5221 6.7611C11.4828 6.70314 11.4643 6.49911 11.4828 6.36696C11.5152 6.16293 11.7651 5.98673 11.9896 6.01223C12.4223 6.06555 12.5796 6.60576 12.2441 6.88398C12.1053 6.9999 11.9548 7.02772 11.7929 6.96976Z" fill="black"></path>
<path d="M5.36447 6.65402C5.36447 6.64243 5.34133 6.63084 5.31125 6.63084C5.23026 6.63084 5.09143 6.52187 5.05209 6.42913C4.94334 6.16946 5.103 5.91211 5.37141 5.91211C5.5843 5.91211 5.7347 6.06281 5.7347 6.27843C5.7347 6.39899 5.73007 6.41058 5.62132 6.51723C5.55884 6.58215 5.48942 6.63084 5.45934 6.63084C5.43389 6.63084 5.41075 6.64243 5.41075 6.65402C5.41075 6.66793 5.4015 6.67721 5.38761 6.67721C5.37604 6.67721 5.36447 6.66793 5.36447 6.65402Z" fill="black"></path>
<path d="M10.4715 6.4594C10.3465 6.42462 10.2123 6.31102 10.1637 6.19741C10.1128 6.07685 10.1221 5.84732 10.1845 5.74531C10.2864 5.57606 10.4761 5.48101 10.6658 5.50187C10.962 5.53665 11.1541 5.84501 11.0685 6.13945C10.9921 6.39448 10.7399 6.52896 10.4715 6.4594Z" fill="black"></path>
<path d="M2.09293 6.1835C1.9379 6.12322 1.80369 5.98875 1.72964 5.82413C1.66254 5.67111 1.66948 5.43927 1.74584 5.29552C1.88236 5.03585 2.04434 4.93848 2.34052 4.93848C2.5696 4.93848 2.62977 4.95702 2.7524 5.06136C2.93752 5.22133 3.02082 5.4184 2.99768 5.64329C2.95372 6.07917 2.50481 6.34579 2.09293 6.1835Z" fill="black"></path>
<path d="M8.73183 6.19692C8.51895 6.08563 8.40788 5.85146 8.46342 5.63816C8.4935 5.53383 8.6092 5.3785 8.70175 5.32285C8.78043 5.27416 9.08818 5.27185 9.18074 5.32053C9.26635 5.36458 9.38668 5.52688 9.41676 5.6428C9.47229 5.84683 9.36585 6.08331 9.17842 6.18069C9.04884 6.24792 8.84059 6.25488 8.73183 6.19692Z" fill="black"></path>
<path d="M12.1911 5.65955C12.0083 5.58536 11.8695 5.36742 11.8672 5.15644C11.8672 4.95705 11.9621 4.78085 12.131 4.66724C12.2166 4.60928 12.2467 4.60464 12.4364 4.60464C12.6655 4.60232 12.7233 4.62551 12.8483 4.7623C12.9894 4.91764 13.0404 5.16803 12.9663 5.34655C12.9247 5.44625 12.7743 5.63405 12.7349 5.63405C12.7187 5.63405 12.6748 5.65028 12.64 5.66882C12.5498 5.71519 12.3207 5.71056 12.1911 5.65955Z" fill="black"></path>
<path d="M3.71731 5.45077C3.62707 5.43222 3.45815 5.29775 3.39799 5.19573C3.37254 5.15168 3.36328 5.06822 3.36328 4.90129V4.66712L3.45121 4.56047C3.60624 4.37036 3.86772 4.30776 4.12225 4.39818C4.4948 4.53265 4.57116 5.06358 4.25877 5.34412C4.12919 5.46004 3.95102 5.49482 3.71731 5.45077Z" fill="black"></path>
<path d="M7.35765 5.32736C7.21881 5.25316 7.16559 5.14883 7.17485 4.98422C7.18642 4.82657 7.23732 4.74774 7.37385 4.6805C7.61681 4.55994 7.88754 4.74078 7.88754 5.02595C7.88754 5.19288 7.73482 5.35286 7.56127 5.37141C7.48491 5.37836 7.43401 5.36909 7.35765 5.32736Z" fill="black"></path>
<path d="M10.8858 5.15891C10.747 5.11022 10.6868 5.05458 10.6082 4.90387C10.4693 4.63957 10.5387 4.34048 10.7748 4.17124C10.8766 4.09705 10.8905 4.09473 11.0918 4.09473C11.2445 4.09473 11.3185 4.104 11.3694 4.13182C11.4666 4.18747 11.5823 4.31498 11.624 4.41236C11.6679 4.51669 11.6703 4.75317 11.6263 4.85287C11.58 4.96647 11.4273 5.11486 11.3162 5.15659C11.1959 5.20296 11.0085 5.20296 10.8858 5.15891Z" fill="black"></path>
<path d="M5.21478 5.13136C5.18933 5.12672 5.14536 5.11745 5.1176 5.11281C5.03892 5.09426 4.92323 4.98529 4.87695 4.88096C4.79596 4.70476 4.83992 4.41727 4.96488 4.31062C5.03661 4.24802 5.21478 4.17383 5.29346 4.17383C5.49708 4.17383 5.70534 4.3083 5.75393 4.47059C5.87657 4.87633 5.5989 5.21482 5.21478 5.13136Z" fill="black"></path>
<path d="M6.40859 5.12397C6.32761 5.11237 6.28596 5.08687 6.22579 5.01732C6.13092 4.90835 6.10547 4.84807 6.10547 4.72983C6.10547 4.6139 6.14018 4.5258 6.21654 4.44233C6.30215 4.35191 6.40397 4.3125 6.55206 4.3125C6.6585 4.3125 6.69089 4.32409 6.78345 4.39597C6.91072 4.49566 6.94774 4.5884 6.93386 4.77851C6.9246 4.90139 6.91303 4.9269 6.83436 5.00804C6.78577 5.05905 6.72792 5.10542 6.70941 5.11006C6.61916 5.13324 6.50115 5.1402 6.40859 5.12397Z" fill="black"></path>
<path d="M9.23561 4.94063C9.04124 4.88963 8.87695 4.64387 8.87695 4.40507C8.87695 4.06889 9.10372 3.84863 9.4485 3.84863C9.65212 3.84863 9.81641 3.94601 9.93674 4.13612C9.99227 4.22654 9.9969 4.56736 9.94136 4.67169C9.8974 4.75052 9.77476 4.8734 9.69609 4.91513C9.62667 4.94991 9.33511 4.96614 9.23561 4.94063Z" fill="black"></path>
<path d="M1.46549 4.62285C1.33591 4.57648 1.21559 4.47215 1.14154 4.34C1.09295 4.25653 1.07444 4.1893 1.06518 4.05251C1.05593 3.89022 1.06055 3.86239 1.12303 3.72792C1.16931 3.63055 1.22484 3.55404 1.28732 3.50535C1.53954 3.30596 1.94216 3.31755 2.15967 3.53317C2.31471 3.68619 2.35636 3.79052 2.35636 4.01078C2.35636 4.23103 2.31239 4.34 2.15967 4.4907C2.00233 4.64604 1.69457 4.704 1.46549 4.62285Z" fill="black"></path>
<path d="M7.54009 4.16625C7.36192 4.10365 7.29944 3.86253 7.41514 3.68632C7.46836 3.60518 7.48687 3.5959 7.60025 3.57967C7.68818 3.5704 7.75528 3.57504 7.81313 3.59822C7.88718 3.62604 7.90338 3.64691 7.9404 3.75124C7.99825 3.92744 7.96354 4.05032 7.83396 4.13379C7.72983 4.20102 7.66504 4.20798 7.54009 4.16625Z" fill="black"></path>
<path d="M3.05571 3.88358C2.92844 3.82793 2.82894 3.73751 2.76415 3.61463C2.7063 3.5103 2.69936 3.47784 2.7063 3.31787C2.71556 3.15094 2.7225 3.13007 2.80349 3.02574C2.93538 2.85417 3.04877 2.79621 3.25934 2.79621C3.41206 2.79389 3.44676 2.80317 3.56015 2.86808C3.96046 3.09993 3.88873 3.73983 3.44676 3.89053C3.34032 3.92763 3.14827 3.92299 3.05571 3.88358Z" fill="black"></path>
<path d="M6.7067 3.76019C6.59332 3.70455 6.53778 3.57703 6.54935 3.40315C6.56555 3.18753 6.7067 3.06929 6.93115 3.08784C7.04222 3.09711 7.06999 3.11102 7.15098 3.19449C7.23428 3.27563 7.24816 3.30345 7.2551 3.41242C7.2713 3.63963 7.1209 3.79961 6.89182 3.79961C6.83397 3.79961 6.75067 3.78106 6.7067 3.76019Z" fill="black"></path>
<path d="M11.0804 3.57778C10.9809 3.56155 10.8004 3.40621 10.7241 3.26942C10.6593 3.15581 10.6523 3.12104 10.6523 2.95642C10.6523 2.7524 10.6778 2.68284 10.8189 2.5136C10.9277 2.37912 11.092 2.30957 11.3002 2.30957C11.5895 2.30957 11.7839 2.43709 11.9088 2.70835C11.9551 2.81036 11.962 2.85905 11.9551 2.98656C11.9505 3.07235 11.9273 3.18364 11.9019 3.23464C11.8394 3.36216 11.652 3.54068 11.5478 3.57082C11.4668 3.59169 11.2031 3.59632 11.0804 3.57778Z" fill="black"></path>
<path d="M4.45763 3.54519C4.36738 3.49418 4.25168 3.36203 4.23086 3.28784C4.17301 3.08613 4.24243 2.77082 4.35118 2.74068C4.37432 2.73604 4.39283 2.72445 4.39283 2.71517C4.39283 2.67576 4.56638 2.62012 4.68902 2.62012C4.96206 2.62244 5.15643 2.82182 5.15643 3.10236C5.15643 3.25538 5.09859 3.37594 4.96901 3.48723C4.87413 3.56837 4.86488 3.57069 4.68439 3.57069C4.58026 3.57069 4.47845 3.5591 4.45763 3.54519Z" fill="black"></path>
<path d="M5.673 3.52664C5.63366 3.50114 5.57119 3.4339 5.53879 3.37362C5.48557 3.2832 5.47632 3.24843 5.48557 3.1325C5.50408 2.88674 5.69383 2.72213 5.93448 2.74068C6.21446 2.76386 6.37412 3.03049 6.27925 3.31566C6.2214 3.49187 6.10339 3.57069 5.89977 3.57069C5.7887 3.57069 5.72622 3.5591 5.673 3.52664Z" fill="black"></path>
<path d="M9.40249 3.34327C9.24051 3.27836 9.11787 3.1578 9.02994 2.97927C8.97672 2.86567 8.96978 2.83089 8.97904 2.68946C8.98829 2.55963 9.0068 2.50167 9.06928 2.39734C9.11325 2.32546 9.18035 2.24664 9.21737 2.21881C9.25671 2.19099 9.29142 2.16317 9.29836 2.15158C9.32613 2.11448 9.51818 2.06348 9.63157 2.06348C9.77503 2.06348 9.94858 2.11912 10.0064 2.18172C10.0273 2.2049 10.0596 2.22577 10.0782 2.22577C10.0944 2.22577 10.1175 2.24432 10.1244 2.2675C10.1337 2.28837 10.1638 2.33706 10.1915 2.37183C10.2586 2.45298 10.2934 2.57354 10.2934 2.72656C10.2934 2.84017 10.2424 3.0326 10.2054 3.06042C10.1962 3.06738 10.1615 3.10911 10.1291 3.15316C10.0944 3.19953 10.0041 3.26676 9.92312 3.31082C9.80511 3.3711 9.75189 3.38501 9.6362 3.38269C9.55752 3.38269 9.45339 3.36646 9.40249 3.34327Z" fill="black"></path>
<path d="M7.85984 3.21109C7.73951 3.14386 7.69555 2.97693 7.76034 2.82391C7.78579 2.75667 7.81124 2.73812 7.89917 2.71262C8.02644 2.67553 8.17222 2.71262 8.22775 2.79609C8.38741 3.03953 8.11437 3.34788 7.85984 3.21109Z" fill="black"></path>
<path d="M7.25726 2.72196C7.17164 2.67791 7.12305 2.57589 7.12305 2.45301C7.12536 2.26522 7.23874 2.15625 7.43543 2.15625C7.63211 2.15625 7.7455 2.26522 7.74781 2.45301C7.74781 2.57821 7.6969 2.67791 7.60897 2.72428C7.52336 2.76833 7.33824 2.76833 7.25726 2.72196Z" fill="black"></path>
<path d="M2.80824 2.44857C2.65089 2.37438 2.5537 2.2631 2.50974 2.11239C2.46346 1.95242 2.46346 1.9246 2.51437 1.75303C2.58378 1.51191 2.78047 1.36816 3.03963 1.36816C3.20392 1.36816 3.32887 1.42149 3.44457 1.53509C3.57646 1.66493 3.62968 1.90141 3.57415 2.09848C3.52324 2.27005 3.40754 2.39525 3.24557 2.45785C3.07897 2.51813 2.9517 2.51581 2.80824 2.44857Z" fill="black"></path>
<path d="M6.48944 2.35998C6.41308 2.31593 6.33903 2.21856 6.31358 2.12582C6.23491 1.8476 6.4825 1.61807 6.781 1.69458C6.87587 1.72008 6.90595 1.74095 6.96148 1.82905C7.07255 1.99366 7.05404 2.14668 6.90826 2.30202C6.8319 2.38317 6.82265 2.3878 6.6815 2.3878C6.60051 2.3878 6.51258 2.37389 6.48944 2.35998Z" fill="black"></path>
<path d="M4.32134 2.15565C4.10614 2.09074 3.97656 1.91221 3.97656 1.67805C3.97656 1.5088 4.03904 1.39056 4.18019 1.28159C4.27275 1.21203 4.29357 1.20508 4.44629 1.20508C4.62678 1.2074 4.66843 1.22363 4.7957 1.33723C4.89751 1.43229 4.93453 1.56212 4.91833 1.75456C4.90214 1.92149 4.86511 1.9864 4.74248 2.07219C4.60133 2.16956 4.46018 2.1997 4.32134 2.15565Z" fill="black"></path>
<path d="M5.53827 2.15131C5.35778 2.08639 5.25134 1.93337 5.24902 1.73398C5.24902 1.61574 5.25828 1.59255 5.34158 1.48822C5.42488 1.37925 5.44108 1.36998 5.5614 1.35607C5.75809 1.33057 5.87841 1.35607 5.9594 1.44417C6.06122 1.55082 6.08204 1.60415 6.08204 1.75021C6.08204 1.90323 6.04502 1.98206 5.93163 2.07016C5.79974 2.17449 5.67479 2.19999 5.53827 2.15131Z" fill="black"></path>
<path d="M9.18051 1.47455C8.97226 1.40036 8.82416 1.26125 8.72698 1.05491C8.59046 0.758141 8.67607 0.373274 8.92135 0.169249C9.10646 0.0139108 9.15043 0 9.43273 0H9.68495L9.82147 0.0881021C10.0714 0.250395 10.1778 0.445147 10.1778 0.737275C10.1778 0.913479 10.1246 1.11055 10.0575 1.18474C10.032 1.21488 9.99502 1.26125 9.97882 1.28907C9.96031 1.31458 9.87006 1.37486 9.77751 1.42123C9.62479 1.49773 9.58776 1.50701 9.43504 1.50701C9.34017 1.50469 9.22679 1.49078 9.18051 1.47455Z" fill="black"></path>
</svg><style>@media (prefers-color-scheme: light) { :root { filter: none; } }
@media (prefers-color-scheme: dark) { :root { filter: none; } }
</style></svg>